0
SECTION
2
HEADER
9
$INSUNITS
70
2
0
ENDSEC
0
SECTION
2
TABLES
0
TABLE
2
LAYER
70
11
0
LAYER
2
WALL
70
0
62
7
6
CONTINUOUS
0
LAYER
2
DOOR
70
0
62
3
6
CONTINUOUS
0
LAYER
2
WIN
70
0
62
5
6
CONTINUOUS
0
LAYER
2
ROOM
70
0
62
2
6
CONTINUOUS
0
LAYER
2
GRID
70
0
62
8
6
CONTINUOUS
0
LAYER
2
NOTE
70
0
62
4
6
CONTINUOUS
0
LAYER
2
FND
70
0
62
1
6
CONTINUOUS
0
LAYER
2
FRAM
70
0
62
5
6
CONTINUOUS
0
LAYER
2
FURN
70
0
62
8
6
CONTINUOUS
0
LAYER
2
ELEC
70
0
62
6
6
CONTINUOUS
0
LAYER
2
SHEET
70
0
62
7
6
CONTINUOUS
0
ENDTAB
0
ENDSEC
0
SECTION
2
ENTITIES
0
POLYLINE
8
WALL
66
1
70
1
10
0
20
0
30
0
0
VERTEX
8
WALL
10
0.0000
20
50.4000
30
0
0
VERTEX
8
WALL
10
3.6000
20
50.4000
30
0
0
VERTEX
8
WALL
10
3.6000
20
49.8000
30
0
0
VERTEX
8
WALL
10
0.0000
20
49.8000
30
0
0
SEQEND
8
WALL
0
POLYLINE
8
WALL
66
1
70
1
10
0
20
0
30
0
0
VERTEX
8
WALL
10
0.0000
20
49.8000
30
0
0
VERTEX
8
WALL
10
0.6000
20
49.8000
30
0
0
VERTEX
8
WALL
10
0.6000
20
40.8000
30
0
0
VERTEX
8
WALL
10
0.0000
20
40.8000
30
0
0
SEQEND
8
WALL
0
POLYLINE
8
WALL
66
1
70
1
10
0
20
0
30
0
0
VERTEX
8
WALL
10
0.0000
20
34.8000
30
0
0
VERTEX
8
WALL
10
0.6000
20
34.8000
30
0
0
VERTEX
8
WALL
10
0.6000
20
12.0000
30
0
0
VERTEX
8
WALL
10
0.0000
20
12.0000
30
0
0
SEQEND
8
WALL
0
POLYLINE
8
WALL
66
1
70
1
10
0
20
0
30
0
0
VERTEX
8
WALL
10
18.6000
20
50.4000
30
0
0
VERTEX
8
WALL
10
22.8000
20
50.4000
30
0
0
VERTEX
8
WALL
10
22.8000
20
49.8000
30
0
0
VERTEX
8
WALL
10
18.6000
20
49.8000
30
0
0
SEQEND
8
WALL
0
POLYLINE
8
WALL
66
1
70
1
10
0
20
0
30
0
0
VERTEX
8
WALL
10
20.4000
20
49.8000
30
0
0
VERTEX
8
WALL
10
20.7600
20
49.8000
30
0
0
VERTEX
8
WALL
10
20.7600
20
24.0000
30
0
0
VERTEX
8
WALL
10
20.4000
20
24.0000
30
0
0
SEQEND
8
WALL
0
POLYLINE
8
WALL
66
1
70
1
10
0
20
0
30
0
0
VERTEX
8
WALL
10
27.0000
20
50.4000
30
0
0
VERTEX
8
WALL
10
32.4000
20
50.4000
30
0
0
VERTEX
8
WALL
10
32.4000
20
49.8000
30
0
0
VERTEX
8
WALL
10
27.0000
20
49.8000
30
0
0
SEQEND
8
WALL
0
POLYLINE
8
WALL
66
1
70
1
10
0
20
0
30
0
0
VERTEX
8
WALL
10
0.6000
20
24.0000
30
0
0
VERTEX
8
WALL
10
20.4000
20
24.0000
30
0
0
VERTEX
8
WALL
10
20.4000
20
23.6400
30
0
0
VERTEX
8
WALL
10
0.6000
20
23.6400
30
0
0
SEQEND
8
WALL
0
POLYLINE
8
WALL
66
1
70
1
10
0
20
0
30
0
0
VERTEX
8
WALL
10
29.4000
20
49.8000
30
0
0
VERTEX
8
WALL
10
29.7600
20
49.8000
30
0
0
VERTEX
8
WALL
10
29.7600
20
33.6000
30
0
0
VERTEX
8
WALL
10
29.4000
20
33.6000
30
0
0
SEQEND
8
WALL
0
POLYLINE
8
WALL
66
1
70
1
10
0
20
0
30
0
0
VERTEX
8
WALL
10
0.6000
20
16.8000
30
0
0
VERTEX
8
WALL
10
20.4000
20
16.8000
30
0
0
VERTEX
8
WALL
10
20.4000
20
16.4400
30
0
0
VERTEX
8
WALL
10
0.6000
20
16.4400
30
0
0
SEQEND
8
WALL
0
POLYLINE
8
WALL
66
1
70
1
10
0
20
0
30
0
0
VERTEX
8
WALL
10
38.4000
20
50.4000
30
0
0
VERTEX
8
WALL
10
40.8000
20
50.4000
30
0
0
VERTEX
8
WALL
10
40.8000
20
49.8000
30
0
0
VERTEX
8
WALL
10
38.4000
20
49.8000
30
0
0
SEQEND
8
WALL
0
POLYLINE
8
WALL
66
1
70
1
10
0
20
0
30
0
0
VERTEX
8
WALL
10
0.6000
20
8.4000
30
0
0
VERTEX
8
WALL
10
9.2400
20
8.4000
30
0
0
VERTEX
8
WALL
10
9.2400
20
8.0400
30
0
0
VERTEX
8
WALL
10
0.6000
20
8.0400
30
0
0
SEQEND
8
WALL
0
POLYLINE
8
WALL
66
1
70
1
10
0
20
0
30
0
0
VERTEX
8
WALL
10
9.0000
20
16.2000
30
0
0
VERTEX
8
WALL
10
9.3600
20
16.2000
30
0
0
VERTEX
8
WALL
10
9.3600
20
8.0400
30
0
0
VERTEX
8
WALL
10
9.0000
20
8.0400
30
0
0
SEQEND
8
WALL
0
POLYLINE
8
WALL
66
1
70
1
10
0
20
0
30
0
0
VERTEX
8
WALL
10
0.0000
20
6.0000
30
0
0
VERTEX
8
WALL
10
0.6000
20
6.0000
30
0
0
VERTEX
8
WALL
10
0.6000
20
0.6000
30
0
0
VERTEX
8
WALL
10
0.0000
20
0.6000
30
0
0
SEQEND
8
WALL
0
POLYLINE
8
WALL
66
1
70
1
10
0
20
0
30
0
0
VERTEX
8
WALL
10
29.7600
20
33.6000
30
0
0
VERTEX
8
WALL
10
47.4000
20
33.6000
30
0
0
VERTEX
8
WALL
10
47.4000
20
33.2400
30
0
0
VERTEX
8
WALL
10
29.7600
20
33.2400
30
0
0
SEQEND
8
WALL
0
POLYLINE
8
WALL
66
1
70
1
10
0
20
0
30
0
0
VERTEX
8
WALL
10
46.8000
20
50.4000
30
0
0
VERTEX
8
WALL
10
48.0000
20
50.4000
30
0
0
VERTEX
8
WALL
10
48.0000
20
49.8000
30
0
0
VERTEX
8
WALL
10
46.8000
20
49.8000
30
0
0
SEQEND
8
WALL
0
POLYLINE
8
WALL
66
1
70
1
10
0
20
0
30
0
0
VERTEX
8
WALL
10
47.4000
20
49.8000
30
0
0
VERTEX
8
WALL
10
48.0000
20
49.8000
30
0
0
VERTEX
8
WALL
10
48.0000
20
45.6000
30
0
0
VERTEX
8
WALL
10
47.4000
20
45.6000
30
0
0
SEQEND
8
WALL
0
POLYLINE
8
WALL
66
1
70
1
10
0
20
0
30
0
0
VERTEX
8
WALL
10
0.0000
20
0.6000
30
0
0
VERTEX
8
WALL
10
3.6000
20
0.6000
30
0
0
VERTEX
8
WALL
10
3.6000
20
0.0000
30
0
0
VERTEX
8
WALL
10
0.0000
20
0.0000
30
0
0
SEQEND
8
WALL
0
POLYLINE
8
WALL
66
1
70
1
10
0
20
0
30
0
0
VERTEX
8
WALL
10
8.4000
20
0.6000
30
0
0
VERTEX
8
WALL
10
26.4000
20
0.6000
30
0
0
VERTEX
8
WALL
10
26.4000
20
0.0000
30
0
0
VERTEX
8
WALL
10
8.4000
20
0.0000
30
0
0
SEQEND
8
WALL
0
POLYLINE
8
WALL
66
1
70
1
10
0
20
0
30
0
0
VERTEX
8
WALL
10
47.4000
20
39.6000
30
0
0
VERTEX
8
WALL
10
48.0000
20
39.6000
30
0
0
VERTEX
8
WALL
10
48.0000
20
30.0000
30
0
0
VERTEX
8
WALL
10
47.4000
20
30.0000
30
0
0
SEQEND
8
WALL
0
POLYLINE
8
WALL
66
1
70
1
10
0
20
0
30
0
0
VERTEX
8
WALL
10
47.4000
20
24.0000
30
0
0
VERTEX
8
WALL
10
48.0000
20
24.0000
30
0
0
VERTEX
8
WALL
10
48.0000
20
12.0000
30
0
0
VERTEX
8
WALL
10
47.4000
20
12.0000
30
0
0
SEQEND
8
WALL
0
POLYLINE
8
WALL
66
1
70
1
10
0
20
0
30
0
0
VERTEX
8
WALL
10
40.8000
20
0.6000
30
0
0
VERTEX
8
WALL
10
48.0000
20
0.6000
30
0
0
VERTEX
8
WALL
10
48.0000
20
0.0000
30
0
0
VERTEX
8
WALL
10
40.8000
20
0.0000
30
0
0
SEQEND
8
WALL
0
POLYLINE
8
WALL
66
1
70
1
10
0
20
0
30
0
0
VERTEX
8
WALL
10
47.4000
20
4.8000
30
0
0
VERTEX
8
WALL
10
48.0000
20
4.8000
30
0
0
VERTEX
8
WALL
10
48.0000
20
0.6000
30
0
0
VERTEX
8
WALL
10
47.4000
20
0.6000
30
0
0
SEQEND
8
WALL
0
LINE
8
DOOR
10
22.8000
20
50.4000
30
0
11
22.8000
21
54.6000
31
0
0
ARC
8
DOOR
10
22.8000
20
50.4000
30
0
40
4.2000
50
0.00
51
90.00
0
LINE
8
DOOR
10
20.4000
20
21.6000
30
0
11
24.0000
21
21.6000
31
0
0
ARC
8
DOOR
10
20.4000
20
21.6000
30
0
40
3.6000
50
270.00
51
360.00
0
LINE
8
DOOR
10
10.8000
20
16.8000
30
0
11
10.8000
21
20.4000
31
0
0
ARC
8
DOOR
10
10.8000
20
16.8000
30
0
40
3.6000
50
0.00
51
90.00
0
LINE
8
DOOR
10
9.0000
20
13.8000
30
0
11
12.3600
21
13.8000
31
0
0
ARC
8
DOOR
10
9.0000
20
13.8000
30
0
40
3.3600
50
270.00
51
360.00
0
LINE
8
DOOR
10
29.4000
20
44.4000
30
0
11
33.0000
21
44.4000
31
0
0
ARC
8
DOOR
10
29.4000
20
44.4000
30
0
40
3.6000
50
270.00
51
360.00
0
LINE
8
WIN
10
32.4000
20
50.4000
30
0
11
38.4000
21
50.4000
31
0
0
LINE
8
WIN
10
32.4000
20
49.8000
30
0
11
38.4000
21
49.8000
31
0
0
LINE
8
WIN
10
32.4000
20
50.1000
30
0
11
38.4000
21
50.1000
31
0
0
LINE
8
WIN
10
40.8000
20
50.4000
30
0
11
46.8000
21
50.4000
31
0
0
LINE
8
WIN
10
40.8000
20
49.8000
30
0
11
46.8000
21
49.8000
31
0
0
LINE
8
WIN
10
40.8000
20
50.1000
30
0
11
46.8000
21
50.1000
31
0
0
LINE
8
WIN
10
3.6000
20
0.6000
30
0
11
8.4000
21
0.6000
31
0
0
LINE
8
WIN
10
3.6000
20
0.0000
30
0
11
8.4000
21
0.0000
31
0
0
LINE
8
WIN
10
3.6000
20
0.3000
30
0
11
8.4000
21
0.3000
31
0
0
LINE
8
WIN
10
26.4000
20
0.6000
30
0
11
40.8000
21
0.6000
31
0
0
LINE
8
WIN
10
26.4000
20
0.0000
30
0
11
40.8000
21
0.0000
31
0
0
LINE
8
WIN
10
26.4000
20
0.3000
30
0
11
40.8000
21
0.3000
31
0
0
LINE
8
WIN
10
0.0000
20
40.8000
30
0
11
0.0000
21
34.8000
31
0
0
LINE
8
WIN
10
0.6000
20
40.8000
30
0
11
0.6000
21
34.8000
31
0
0
LINE
8
WIN
10
0.3000
20
40.8000
30
0
11
0.3000
21
34.8000
31
0
0
LINE
8
WIN
10
0.0000
20
12.0000
30
0
11
0.0000
21
6.0000
31
0
0
LINE
8
WIN
10
0.6000
20
12.0000
30
0
11
0.6000
21
6.0000
31
0
0
LINE
8
WIN
10
0.3000
20
12.0000
30
0
11
0.3000
21
6.0000
31
0
0
LINE
8
WIN
10
47.4000
20
45.6000
30
0
11
47.4000
21
39.6000
31
0
0
LINE
8
WIN
10
48.0000
20
45.6000
30
0
11
48.0000
21
39.6000
31
0
0
LINE
8
WIN
10
47.7000
20
45.6000
30
0
11
47.7000
21
39.6000
31
0
0
LINE
8
WIN
10
47.4000
20
30.0000
30
0
11
47.4000
21
24.0000
31
0
0
LINE
8
WIN
10
48.0000
20
30.0000
30
0
11
48.0000
21
24.0000
31
0
0
LINE
8
WIN
10
47.7000
20
30.0000
30
0
11
47.7000
21
24.0000
31
0
0
LINE
8
WIN
10
47.4000
20
12.0000
30
0
11
47.4000
21
4.8000
31
0
0
LINE
8
WIN
10
48.0000
20
12.0000
30
0
11
48.0000
21
4.8000
31
0
0
LINE
8
WIN
10
47.7000
20
12.0000
30
0
11
47.7000
21
4.8000
31
0
0
LINE
8
GRID
10
0.6000
20
60.0000
30
0
11
0.6000
21
-9.6000
31
0
0
LINE
8
GRID
10
20.4000
20
60.0000
30
0
11
20.4000
21
-9.6000
31
0
0
LINE
8
GRID
10
29.4000
20
60.0000
30
0
11
29.4000
21
-9.6000
31
0
0
LINE
8
GRID
10
47.4000
20
60.0000
30
0
11
47.4000
21
-9.6000
31
0
0
LINE
8
GRID
10
-9.6000
20
49.8000
30
0
11
57.6000
21
49.8000
31
0
0
LINE
8
GRID
10
-9.6000
20
33.6000
30
0
11
57.6000
21
33.6000
31
0
0
LINE
8
GRID
10
-9.6000
20
16.8000
30
0
11
57.6000
21
16.8000
31
0
0
LINE
8
GRID
10
-9.6000
20
0.6000
30
0
11
57.6000
21
0.6000
31
0
0
TEXT
8
ROOM
10
7.0800
20
37.8000
30
0
40
0.6600
1
GARAGE
0
TEXT
8
ROOM
10
8.0400
20
36.6000
30
0
40
0.4800
1
511 SF
0
TEXT
8
ROOM
10
21.8400
20
42.0000
30
0
40
0.6600
1
FOYER
0
TEXT
8
ROOM
10
22.8000
20
40.8000
30
0
40
0.4800
1
136 SF
0
TEXT
8
ROOM
10
35.0400
20
42.0000
30
0
40
0.6600
1
STUDY
0
TEXT
8
ROOM
10
36.0000
20
40.8000
30
0
40
0.4800
1
282 SF
0
TEXT
8
ROOM
10
30.8400
20
25.8000
30
0
40
0.6600
1
KITCHEN
0
TEXT
8
ROOM
10
31.8000
20
24.6000
30
0
40
0.4800
1
412 SF
0
TEXT
8
ROOM
10
7.0800
20
20.4000
30
0
40
0.6600
1
MUDROOM
0
TEXT
8
ROOM
10
8.0400
20
19.2000
30
0
40
0.4800
1
131 SF
0
TEXT
8
ROOM
10
1.4400
20
12.2400
30
0
40
0.6600
1
POWDER
0
TEXT
8
ROOM
10
2.4000
20
11.0400
30
0
40
0.4800
1
65 SF
0
TEXT
8
ROOM
10
24.2400
20
10.2000
30
0
40
0.6600
1
GREAT ROOM
0
TEXT
8
ROOM
10
25.2000
20
9.0000
30
0
40
0.4800
1
612 SF
0
POLYLINE
8
FURN
66
1
70
1
10
0
20
0
30
0
0
VERTEX
8
FURN
10
2.4000
20
46.2000
30
0
0
VERTEX
8
FURN
10
8.6400
20
46.2000
30
0
0
VERTEX
8
FURN
10
8.6400
20
30.6000
30
0
0
VERTEX
8
FURN
10
2.4000
20
30.6000
30
0
0
SEQEND
8
FURN
0
POLYLINE
8
FURN
66
1
70
1
10
0
20
0
30
0
0
VERTEX
8
FURN
10
3.4800
20
42.6000
30
0
0
VERTEX
8
FURN
10
7.5600
20
42.6000
30
0
0
VERTEX
8
FURN
10
7.5600
20
38.0400
30
0
0
VERTEX
8
FURN
10
3.4800
20
38.0400
30
0
0
SEQEND
8
FURN
0
POLYLINE
8
FURN
66
1
70
1
10
0
20
0
30
0
0
VERTEX
8
FURN
10
11.7600
20
46.2000
30
0
0
VERTEX
8
FURN
10
18.0000
20
46.2000
30
0
0
VERTEX
8
FURN
10
18.0000
20
30.6000
30
0
0
VERTEX
8
FURN
10
11.7600
20
30.6000
30
0
0
SEQEND
8
FURN
0
POLYLINE
8
FURN
66
1
70
1
10
0
20
0
30
0
0
VERTEX
8
FURN
10
12.8400
20
42.6000
30
0
0
VERTEX
8
FURN
10
16.9200
20
42.6000
30
0
0
VERTEX
8
FURN
10
16.9200
20
38.0400
30
0
0
VERTEX
8
FURN
10
12.8400
20
38.0400
30
0
0
SEQEND
8
FURN
0
LINE
8
FURN
10
21.6000
20
48.2400
30
0
11
28.8000
21
48.2400
31
0
0
LINE
8
FURN
10
21.6000
20
47.2200
30
0
11
28.8000
21
47.2200
31
0
0
LINE
8
FURN
10
21.6000
20
46.2000
30
0
11
28.8000
21
46.2000
31
0
0
LINE
8
FURN
10
21.6000
20
45.1800
30
0
11
28.8000
21
45.1800
31
0
0
LINE
8
FURN
10
21.6000
20
44.1600
30
0
11
28.8000
21
44.1600
31
0
0
LINE
8
FURN
10
21.6000
20
43.1400
30
0
11
28.8000
21
43.1400
31
0
0
LINE
8
FURN
10
21.6000
20
42.1200
30
0
11
28.8000
21
42.1200
31
0
0
LINE
8
FURN
10
21.6000
20
41.1000
30
0
11
28.8000
21
41.1000
31
0
0
LINE
8
FURN
10
21.6000
20
40.0800
30
0
11
28.8000
21
40.0800
31
0
0
LINE
8
FURN
10
21.6000
20
39.0600
30
0
11
28.8000
21
39.0600
31
0
0
LINE
8
FURN
10
21.6000
20
38.0400
30
0
11
28.8000
21
38.0400
31
0
0
LINE
8
FURN
10
21.6000
20
37.0200
30
0
11
28.8000
21
37.0200
31
0
0
LINE
8
FURN
10
21.6000
20
36.0000
30
0
11
28.8000
21
36.0000
31
0
0
LINE
8
FURN
10
21.6000
20
34.9800
30
0
11
28.8000
21
34.9800
31
0
0
LINE
8
FURN
10
25.2000
20
34.5600
30
0
11
25.2000
21
47.5200
31
0
0
LINE
8
FURN
10
24.4800
20
45.9600
30
0
11
25.2000
21
47.5200
31
0
0
LINE
8
FURN
10
25.9200
20
45.9600
30
0
11
25.2000
21
47.5200
31
0
0
POLYLINE
8
FURN
66
1
70
1
10
0
20
0
30
0
0
VERTEX
8
FURN
10
31.4400
20
48.2400
30
0
0
VERTEX
8
FURN
10
42.8400
20
48.2400
30
0
0
VERTEX
8
FURN
10
42.8400
20
44.6400
30
0
0
VERTEX
8
FURN
10
31.4400
20
44.6400
30
0
0
SEQEND
8
FURN
0
CIRCLE
8
FURN
10
37.2000
20
42.9600
30
0
40
1.5600
0
POLYLINE
8
FURN
66
1
70
1
10
0
20
0
30
0
0
VERTEX
8
FURN
10
43.2000
20
48.2400
30
0
0
VERTEX
8
FURN
10
46.5600
20
48.2400
30
0
0
VERTEX
8
FURN
10
46.5600
20
37.4400
30
0
0
VERTEX
8
FURN
10
43.2000
20
37.4400
30
0
0
SEQEND
8
FURN
0
POLYLINE
8
FURN
66
1
70
1
10
0
20
0
30
0
0
VERTEX
8
FURN
10
30.2400
20
32.6400
30
0
0
VERTEX
8
FURN
10
47.0400
20
32.6400
30
0
0
VERTEX
8
FURN
10
47.0400
20
29.2800
30
0
0
VERTEX
8
FURN
10
30.2400
20
29.2800
30
0
0
SEQEND
8
FURN
0
POLYLINE
8
FURN
66
1
70
1
10
0
20
0
30
0
0
VERTEX
8
FURN
10
43.6800
20
29.2800
30
0
0
VERTEX
8
FURN
10
47.0400
20
29.2800
30
0
0
VERTEX
8
FURN
10
47.0400
20
18.9600
30
0
0
VERTEX
8
FURN
10
43.6800
20
18.9600
30
0
0
SEQEND
8
FURN
0
POLYLINE
8
FURN
66
1
70
1
10
0
20
0
30
0
0
VERTEX
8
FURN
10
32.4000
20
25.2000
30
0
0
VERTEX
8
FURN
10
43.2000
20
25.2000
30
0
0
VERTEX
8
FURN
10
43.2000
20
21.1200
30
0
0
VERTEX
8
FURN
10
32.4000
20
21.1200
30
0
0
SEQEND
8
FURN
0
POLYLINE
8
FURN
66
1
70
1
10
0
20
0
30
0
0
VERTEX
8
FURN
10
34.3200
20
24.2400
30
0
0
VERTEX
8
FURN
10
39.1200
20
24.2400
30
0
0
VERTEX
8
FURN
10
39.1200
20
22.0800
30
0
0
VERTEX
8
FURN
10
34.3200
20
22.0800
30
0
0
SEQEND
8
FURN
0
POLYLINE
8
FURN
66
1
70
1
10
0
20
0
30
0
0
VERTEX
8
FURN
10
35.4000
20
32.1600
30
0
0
VERTEX
8
FURN
10
39.4800
20
32.1600
30
0
0
VERTEX
8
FURN
10
39.4800
20
29.7600
30
0
0
VERTEX
8
FURN
10
35.4000
20
29.7600
30
0
0
SEQEND
8
FURN
0
CIRCLE
8
FURN
10
36.2400
20
30.9600
30
0
40
0.6000
0
CIRCLE
8
FURN
10
38.6400
20
30.9600
30
0
40
0.6000
0
POLYLINE
8
FURN
66
1
70
1
10
0
20
0
30
0
0
VERTEX
8
FURN
10
43.9200
20
24.4800
30
0
0
VERTEX
8
FURN
10
46.8000
20
24.4800
30
0
0
VERTEX
8
FURN
10
46.8000
20
19.6800
30
0
0
VERTEX
8
FURN
10
43.9200
20
19.6800
30
0
0
SEQEND
8
FURN
0
POLYLINE
8
FURN
66
1
70
1
10
0
20
0
30
0
0
VERTEX
8
FURN
10
1.4400
20
22.8000
30
0
0
VERTEX
8
FURN
10
14.6400
20
22.8000
30
0
0
VERTEX
8
FURN
10
14.6400
20
20.6400
30
0
0
VERTEX
8
FURN
10
1.4400
20
20.6400
30
0
0
SEQEND
8
FURN
0
CIRCLE
8
FURN
10
2.6400
20
23.2800
30
0
40
0.3600
0
CIRCLE
8
FURN
10
5.2800
20
23.2800
30
0
40
0.3600
0
CIRCLE
8
FURN
10
7.9200
20
23.2800
30
0
40
0.3600
0
CIRCLE
8
FURN
10
10.5600
20
23.2800
30
0
40
0.3600
0
CIRCLE
8
FURN
10
13.2000
20
23.2800
30
0
40
0.3600
0
POLYLINE
8
FURN
66
1
70
1
10
0
20
0
30
0
0
VERTEX
8
FURN
10
15.6000
20
23.0400
30
0
0
VERTEX
8
FURN
10
19.4400
20
23.0400
30
0
0
VERTEX
8
FURN
10
19.4400
20
17.7600
30
0
0
VERTEX
8
FURN
10
15.6000
20
17.7600
30
0
0
SEQEND
8
FURN
0
POLYLINE
8
FURN
66
1
70
1
10
0
20
0
30
0
0
VERTEX
8
FURN
10
1.6800
20
12.7200
30
0
0
VERTEX
8
FURN
10
3.8400
20
12.7200
30
0
0
VERTEX
8
FURN
10
3.8400
20
9.8400
30
0
0
VERTEX
8
FURN
10
1.6800
20
9.8400
30
0
0
SEQEND
8
FURN
0
CIRCLE
8
FURN
10
6.9600
20
14.1600
30
0
40
0.9600
0
POLYLINE
8
FURN
66
1
70
1
10
0
20
0
30
0
0
VERTEX
8
FURN
10
12.7200
20
10.0800
30
0
0
VERTEX
8
FURN
10
15.3600
20
10.0800
30
0
0
VERTEX
8
FURN
10
15.3600
20
1.4400
30
0
0
VERTEX
8
FURN
10
12.7200
20
1.4400
30
0
0
SEQEND
8
FURN
0
POLYLINE
8
FURN
66
1
70
1
10
0
20
0
30
0
0
VERTEX
8
FURN
10
15.3600
20
10.0800
30
0
0
VERTEX
8
FURN
10
24.9600
20
10.0800
30
0
0
VERTEX
8
FURN
10
24.9600
20
7.6800
30
0
0
VERTEX
8
FURN
10
15.3600
20
7.6800
30
0
0
SEQEND
8
FURN
0
POLYLINE
8
FURN
66
1
70
1
10
0
20
0
30
0
0
VERTEX
8
FURN
10
17.0400
20
6.0000
30
0
0
VERTEX
8
FURN
10
23.0400
20
6.0000
30
0
0
VERTEX
8
FURN
10
23.0400
20
2.8800
30
0
0
VERTEX
8
FURN
10
17.0400
20
2.8800
30
0
0
SEQEND
8
FURN
0
POLYLINE
8
FURN
66
1
70
1
10
0
20
0
30
0
0
VERTEX
8
FURN
10
31.4400
20
9.3600
30
0
0
VERTEX
8
FURN
10
42.4800
20
9.3600
30
0
0
VERTEX
8
FURN
10
42.4800
20
3.3600
30
0
0
VERTEX
8
FURN
10
31.4400
20
3.3600
30
0
0
SEQEND
8
FURN
0
POLYLINE
8
FURN
66
1
70
1
10
0
20
0
30
0
0
VERTEX
8
FURN
10
32.6400
20
10.3200
30
0
0
VERTEX
8
FURN
10
34.5600
20
10.3200
30
0
0
VERTEX
8
FURN
10
34.5600
20
9.6000
30
0
0
VERTEX
8
FURN
10
32.6400
20
9.6000
30
0
0
SEQEND
8
FURN
0
POLYLINE
8
FURN
66
1
70
1
10
0
20
0
30
0
0
VERTEX
8
FURN
10
36.2400
20
10.3200
30
0
0
VERTEX
8
FURN
10
38.1600
20
10.3200
30
0
0
VERTEX
8
FURN
10
38.1600
20
9.6000
30
0
0
VERTEX
8
FURN
10
36.2400
20
9.6000
30
0
0
SEQEND
8
FURN
0
POLYLINE
8
FURN
66
1
70
1
10
0
20
0
30
0
0
VERTEX
8
FURN
10
39.8400
20
10.3200
30
0
0
VERTEX
8
FURN
10
41.7600
20
10.3200
30
0
0
VERTEX
8
FURN
10
41.7600
20
9.6000
30
0
0
VERTEX
8
FURN
10
39.8400
20
9.6000
30
0
0
SEQEND
8
FURN
0
POLYLINE
8
FURN
66
1
70
1
10
0
20
0
30
0
0
VERTEX
8
FURN
10
32.6400
20
2.6400
30
0
0
VERTEX
8
FURN
10
34.5600
20
2.6400
30
0
0
VERTEX
8
FURN
10
34.5600
20
1.9200
30
0
0
VERTEX
8
FURN
10
32.6400
20
1.9200
30
0
0
SEQEND
8
FURN
0
POLYLINE
8
FURN
66
1
70
1
10
0
20
0
30
0
0
VERTEX
8
FURN
10
36.2400
20
2.6400
30
0
0
VERTEX
8
FURN
10
38.1600
20
2.6400
30
0
0
VERTEX
8
FURN
10
38.1600
20
1.9200
30
0
0
VERTEX
8
FURN
10
36.2400
20
1.9200
30
0
0
SEQEND
8
FURN
0
POLYLINE
8
FURN
66
1
70
1
10
0
20
0
30
0
0
VERTEX
8
FURN
10
39.8400
20
2.6400
30
0
0
VERTEX
8
FURN
10
41.7600
20
2.6400
30
0
0
VERTEX
8
FURN
10
41.7600
20
1.9200
30
0
0
VERTEX
8
FURN
10
39.8400
20
1.9200
30
0
0
SEQEND
8
FURN
0
LINE
8
FURN
10
22.8000
20
50.4000
30
0
11
22.8000
21
46.2000
31
0
0
LINE
8
FURN
10
20.4000
20
21.6000
30
0
11
24.0000
21
21.6000
31
0
0
LINE
8
FURN
10
10.8000
20
16.8000
30
0
11
10.8000
21
13.2000
31
0
0
LINE
8
FURN
10
9.0000
20
13.8000
30
0
11
12.3600
21
13.8000
31
0
0
LINE
8
FURN
10
29.4000
20
44.4000
30
0
11
33.0000
21
44.4000
31
0
0
LINE
8
FURN
10
32.4000
20
50.4000
30
0
11
38.4000
21
50.4000
31
0
0
LINE
8
FURN
10
32.4000
20
49.8000
30
0
11
38.4000
21
49.8000
31
0
0
LINE
8
FURN
10
32.4000
20
50.1000
30
0
11
38.4000
21
50.1000
31
0
0
LINE
8
FURN
10
40.8000
20
50.4000
30
0
11
46.8000
21
50.4000
31
0
0
LINE
8
FURN
10
40.8000
20
49.8000
30
0
11
46.8000
21
49.8000
31
0
0
LINE
8
FURN
10
40.8000
20
50.1000
30
0
11
46.8000
21
50.1000
31
0
0
LINE
8
FURN
10
3.6000
20
0.6000
30
0
11
8.4000
21
0.6000
31
0
0
LINE
8
FURN
10
3.6000
20
0.0000
30
0
11
8.4000
21
0.0000
31
0
0
LINE
8
FURN
10
3.6000
20
0.3000
30
0
11
8.4000
21
0.3000
31
0
0
LINE
8
FURN
10
26.4000
20
0.6000
30
0
11
40.8000
21
0.6000
31
0
0
LINE
8
FURN
10
26.4000
20
0.0000
30
0
11
40.8000
21
0.0000
31
0
0
LINE
8
FURN
10
26.4000
20
0.3000
30
0
11
40.8000
21
0.3000
31
0
0
LINE
8
FURN
10
0.0000
20
40.8000
30
0
11
0.0000
21
34.8000
31
0
0
LINE
8
FURN
10
0.6000
20
40.8000
30
0
11
0.6000
21
34.8000
31
0
0
LINE
8
FURN
10
0.3000
20
40.8000
30
0
11
0.3000
21
34.8000
31
0
0
LINE
8
FURN
10
0.0000
20
12.0000
30
0
11
0.0000
21
6.0000
31
0
0
LINE
8
FURN
10
0.6000
20
12.0000
30
0
11
0.6000
21
6.0000
31
0
0
LINE
8
FURN
10
0.3000
20
12.0000
30
0
11
0.3000
21
6.0000
31
0
0
LINE
8
FURN
10
47.4000
20
45.6000
30
0
11
47.4000
21
39.6000
31
0
0
LINE
8
FURN
10
48.0000
20
45.6000
30
0
11
48.0000
21
39.6000
31
0
0
LINE
8
FURN
10
47.7000
20
45.6000
30
0
11
47.7000
21
39.6000
31
0
0
LINE
8
FURN
10
47.4000
20
30.0000
30
0
11
47.4000
21
24.0000
31
0
0
LINE
8
FURN
10
48.0000
20
30.0000
30
0
11
48.0000
21
24.0000
31
0
0
LINE
8
FURN
10
47.7000
20
30.0000
30
0
11
47.7000
21
24.0000
31
0
0
LINE
8
FURN
10
47.4000
20
12.0000
30
0
11
47.4000
21
4.8000
31
0
0
LINE
8
FURN
10
48.0000
20
12.0000
30
0
11
48.0000
21
4.8000
31
0
0
LINE
8
FURN
10
47.7000
20
12.0000
30
0
11
47.7000
21
4.8000
31
0
0
TEXT
8
NOTE
10
0.0000
20
-22.8000
30
0
40
0.8400
1
REMOTE & PARTNERS · DEMONSTRATION RESIDENCE
0
TEXT
8
NOTE
10
0.0000
20
-24.6000
30
0
40
0.6600
1
A-101 FIRST FLOOR PLAN · 1/4" = 1'-0" · UNITS: FEET
0
ENDSEC
0
EOF
