0
SECTION
2
HEADER
9
$INSUNITS
70
2
0
ENDSEC
0
SECTION
2
TABLES
0
TABLE
2
LAYER
70
11
0
LAYER
2
WALL
70
0
62
7
6
CONTINUOUS
0
LAYER
2
DOOR
70
0
62
3
6
CONTINUOUS
0
LAYER
2
WIN
70
0
62
5
6
CONTINUOUS
0
LAYER
2
ROOM
70
0
62
2
6
CONTINUOUS
0
LAYER
2
GRID
70
0
62
8
6
CONTINUOUS
0
LAYER
2
NOTE
70
0
62
4
6
CONTINUOUS
0
LAYER
2
FND
70
0
62
1
6
CONTINUOUS
0
LAYER
2
FRAM
70
0
62
5
6
CONTINUOUS
0
LAYER
2
FURN
70
0
62
8
6
CONTINUOUS
0
LAYER
2
ELEC
70
0
62
6
6
CONTINUOUS
0
LAYER
2
SHEET
70
0
62
7
6
CONTINUOUS
0
ENDTAB
0
ENDSEC
0
SECTION
2
ENTITIES
0
POLYLINE
8
WALL
66
1
70
1
10
0
20
0
30
0
0
VERTEX
8
WALL
10
0.0000
20
50.4000
30
0
0
VERTEX
8
WALL
10
3.6000
20
50.4000
30
0
0
VERTEX
8
WALL
10
3.6000
20
49.8000
30
0
0
VERTEX
8
WALL
10
0.0000
20
49.8000
30
0
0
SEQEND
8
WALL
0
POLYLINE
8
WALL
66
1
70
1
10
0
20
0
30
0
0
VERTEX
8
WALL
10
0.0000
20
49.8000
30
0
0
VERTEX
8
WALL
10
0.6000
20
49.8000
30
0
0
VERTEX
8
WALL
10
0.6000
20
40.8000
30
0
0
VERTEX
8
WALL
10
0.0000
20
40.8000
30
0
0
SEQEND
8
WALL
0
POLYLINE
8
WALL
66
1
70
1
10
0
20
0
30
0
0
VERTEX
8
WALL
10
0.0000
20
34.8000
30
0
0
VERTEX
8
WALL
10
0.6000
20
34.8000
30
0
0
VERTEX
8
WALL
10
0.6000
20
12.0000
30
0
0
VERTEX
8
WALL
10
0.0000
20
12.0000
30
0
0
SEQEND
8
WALL
0
POLYLINE
8
WALL
66
1
70
1
10
0
20
0
30
0
0
VERTEX
8
WALL
10
18.6000
20
50.4000
30
0
0
VERTEX
8
WALL
10
22.8000
20
50.4000
30
0
0
VERTEX
8
WALL
10
22.8000
20
49.8000
30
0
0
VERTEX
8
WALL
10
18.6000
20
49.8000
30
0
0
SEQEND
8
WALL
0
POLYLINE
8
WALL
66
1
70
1
10
0
20
0
30
0
0
VERTEX
8
WALL
10
20.4000
20
49.8000
30
0
0
VERTEX
8
WALL
10
20.7600
20
49.8000
30
0
0
VERTEX
8
WALL
10
20.7600
20
24.0000
30
0
0
VERTEX
8
WALL
10
20.4000
20
24.0000
30
0
0
SEQEND
8
WALL
0
POLYLINE
8
WALL
66
1
70
1
10
0
20
0
30
0
0
VERTEX
8
WALL
10
27.0000
20
50.4000
30
0
0
VERTEX
8
WALL
10
32.4000
20
50.4000
30
0
0
VERTEX
8
WALL
10
32.4000
20
49.8000
30
0
0
VERTEX
8
WALL
10
27.0000
20
49.8000
30
0
0
SEQEND
8
WALL
0
POLYLINE
8
WALL
66
1
70
1
10
0
20
0
30
0
0
VERTEX
8
WALL
10
0.6000
20
24.0000
30
0
0
VERTEX
8
WALL
10
20.4000
20
24.0000
30
0
0
VERTEX
8
WALL
10
20.4000
20
23.6400
30
0
0
VERTEX
8
WALL
10
0.6000
20
23.6400
30
0
0
SEQEND
8
WALL
0
POLYLINE
8
WALL
66
1
70
1
10
0
20
0
30
0
0
VERTEX
8
WALL
10
29.4000
20
49.8000
30
0
0
VERTEX
8
WALL
10
29.7600
20
49.8000
30
0
0
VERTEX
8
WALL
10
29.7600
20
33.6000
30
0
0
VERTEX
8
WALL
10
29.4000
20
33.6000
30
0
0
SEQEND
8
WALL
0
POLYLINE
8
WALL
66
1
70
1
10
0
20
0
30
0
0
VERTEX
8
WALL
10
0.6000
20
16.8000
30
0
0
VERTEX
8
WALL
10
20.4000
20
16.8000
30
0
0
VERTEX
8
WALL
10
20.4000
20
16.4400
30
0
0
VERTEX
8
WALL
10
0.6000
20
16.4400
30
0
0
SEQEND
8
WALL
0
POLYLINE
8
WALL
66
1
70
1
10
0
20
0
30
0
0
VERTEX
8
WALL
10
38.4000
20
50.4000
30
0
0
VERTEX
8
WALL
10
40.8000
20
50.4000
30
0
0
VERTEX
8
WALL
10
40.8000
20
49.8000
30
0
0
VERTEX
8
WALL
10
38.4000
20
49.8000
30
0
0
SEQEND
8
WALL
0
POLYLINE
8
WALL
66
1
70
1
10
0
20
0
30
0
0
VERTEX
8
WALL
10
0.6000
20
8.4000
30
0
0
VERTEX
8
WALL
10
9.2400
20
8.4000
30
0
0
VERTEX
8
WALL
10
9.2400
20
8.0400
30
0
0
VERTEX
8
WALL
10
0.6000
20
8.0400
30
0
0
SEQEND
8
WALL
0
POLYLINE
8
WALL
66
1
70
1
10
0
20
0
30
0
0
VERTEX
8
WALL
10
9.0000
20
16.2000
30
0
0
VERTEX
8
WALL
10
9.3600
20
16.2000
30
0
0
VERTEX
8
WALL
10
9.3600
20
8.0400
30
0
0
VERTEX
8
WALL
10
9.0000
20
8.0400
30
0
0
SEQEND
8
WALL
0
POLYLINE
8
WALL
66
1
70
1
10
0
20
0
30
0
0
VERTEX
8
WALL
10
0.0000
20
6.0000
30
0
0
VERTEX
8
WALL
10
0.6000
20
6.0000
30
0
0
VERTEX
8
WALL
10
0.6000
20
0.6000
30
0
0
VERTEX
8
WALL
10
0.0000
20
0.6000
30
0
0
SEQEND
8
WALL
0
POLYLINE
8
WALL
66
1
70
1
10
0
20
0
30
0
0
VERTEX
8
WALL
10
29.7600
20
33.6000
30
0
0
VERTEX
8
WALL
10
47.4000
20
33.6000
30
0
0
VERTEX
8
WALL
10
47.4000
20
33.2400
30
0
0
VERTEX
8
WALL
10
29.7600
20
33.2400
30
0
0
SEQEND
8
WALL
0
POLYLINE
8
WALL
66
1
70
1
10
0
20
0
30
0
0
VERTEX
8
WALL
10
46.8000
20
50.4000
30
0
0
VERTEX
8
WALL
10
48.0000
20
50.4000
30
0
0
VERTEX
8
WALL
10
48.0000
20
49.8000
30
0
0
VERTEX
8
WALL
10
46.8000
20
49.8000
30
0
0
SEQEND
8
WALL
0
POLYLINE
8
WALL
66
1
70
1
10
0
20
0
30
0
0
VERTEX
8
WALL
10
47.4000
20
49.8000
30
0
0
VERTEX
8
WALL
10
48.0000
20
49.8000
30
0
0
VERTEX
8
WALL
10
48.0000
20
45.6000
30
0
0
VERTEX
8
WALL
10
47.4000
20
45.6000
30
0
0
SEQEND
8
WALL
0
POLYLINE
8
WALL
66
1
70
1
10
0
20
0
30
0
0
VERTEX
8
WALL
10
0.0000
20
0.6000
30
0
0
VERTEX
8
WALL
10
3.6000
20
0.6000
30
0
0
VERTEX
8
WALL
10
3.6000
20
0.0000
30
0
0
VERTEX
8
WALL
10
0.0000
20
0.0000
30
0
0
SEQEND
8
WALL
0
POLYLINE
8
WALL
66
1
70
1
10
0
20
0
30
0
0
VERTEX
8
WALL
10
8.4000
20
0.6000
30
0
0
VERTEX
8
WALL
10
26.4000
20
0.6000
30
0
0
VERTEX
8
WALL
10
26.4000
20
0.0000
30
0
0
VERTEX
8
WALL
10
8.4000
20
0.0000
30
0
0
SEQEND
8
WALL
0
POLYLINE
8
WALL
66
1
70
1
10
0
20
0
30
0
0
VERTEX
8
WALL
10
47.4000
20
39.6000
30
0
0
VERTEX
8
WALL
10
48.0000
20
39.6000
30
0
0
VERTEX
8
WALL
10
48.0000
20
30.0000
30
0
0
VERTEX
8
WALL
10
47.4000
20
30.0000
30
0
0
SEQEND
8
WALL
0
POLYLINE
8
WALL
66
1
70
1
10
0
20
0
30
0
0
VERTEX
8
WALL
10
47.4000
20
24.0000
30
0
0
VERTEX
8
WALL
10
48.0000
20
24.0000
30
0
0
VERTEX
8
WALL
10
48.0000
20
12.0000
30
0
0
VERTEX
8
WALL
10
47.4000
20
12.0000
30
0
0
SEQEND
8
WALL
0
POLYLINE
8
WALL
66
1
70
1
10
0
20
0
30
0
0
VERTEX
8
WALL
10
40.8000
20
0.6000
30
0
0
VERTEX
8
WALL
10
48.0000
20
0.6000
30
0
0
VERTEX
8
WALL
10
48.0000
20
0.0000
30
0
0
VERTEX
8
WALL
10
40.8000
20
0.0000
30
0
0
SEQEND
8
WALL
0
POLYLINE
8
WALL
66
1
70
1
10
0
20
0
30
0
0
VERTEX
8
WALL
10
47.4000
20
4.8000
30
0
0
VERTEX
8
WALL
10
48.0000
20
4.8000
30
0
0
VERTEX
8
WALL
10
48.0000
20
0.6000
30
0
0
VERTEX
8
WALL
10
47.4000
20
0.6000
30
0
0
SEQEND
8
WALL
0
LINE
8
DOOR
10
22.8000
20
50.4000
30
0
11
22.8000
21
54.6000
31
0
0
ARC
8
DOOR
10
22.8000
20
50.4000
30
0
40
4.2000
50
0.00
51
90.00
0
LINE
8
DOOR
10
20.4000
20
21.6000
30
0
11
24.0000
21
21.6000
31
0
0
ARC
8
DOOR
10
20.4000
20
21.6000
30
0
40
3.6000
50
270.00
51
360.00
0
LINE
8
DOOR
10
10.8000
20
16.8000
30
0
11
10.8000
21
20.4000
31
0
0
ARC
8
DOOR
10
10.8000
20
16.8000
30
0
40
3.6000
50
0.00
51
90.00
0
LINE
8
DOOR
10
9.0000
20
13.8000
30
0
11
12.3600
21
13.8000
31
0
0
ARC
8
DOOR
10
9.0000
20
13.8000
30
0
40
3.3600
50
270.00
51
360.00
0
LINE
8
DOOR
10
29.4000
20
44.4000
30
0
11
33.0000
21
44.4000
31
0
0
ARC
8
DOOR
10
29.4000
20
44.4000
30
0
40
3.6000
50
270.00
51
360.00
0
LINE
8
WIN
10
32.4000
20
50.4000
30
0
11
38.4000
21
50.4000
31
0
0
LINE
8
WIN
10
32.4000
20
49.8000
30
0
11
38.4000
21
49.8000
31
0
0
LINE
8
WIN
10
32.4000
20
50.1000
30
0
11
38.4000
21
50.1000
31
0
0
LINE
8
WIN
10
40.8000
20
50.4000
30
0
11
46.8000
21
50.4000
31
0
0
LINE
8
WIN
10
40.8000
20
49.8000
30
0
11
46.8000
21
49.8000
31
0
0
LINE
8
WIN
10
40.8000
20
50.1000
30
0
11
46.8000
21
50.1000
31
0
0
LINE
8
WIN
10
3.6000
20
0.6000
30
0
11
8.4000
21
0.6000
31
0
0
LINE
8
WIN
10
3.6000
20
0.0000
30
0
11
8.4000
21
0.0000
31
0
0
LINE
8
WIN
10
3.6000
20
0.3000
30
0
11
8.4000
21
0.3000
31
0
0
LINE
8
WIN
10
26.4000
20
0.6000
30
0
11
40.8000
21
0.6000
31
0
0
LINE
8
WIN
10
26.4000
20
0.0000
30
0
11
40.8000
21
0.0000
31
0
0
LINE
8
WIN
10
26.4000
20
0.3000
30
0
11
40.8000
21
0.3000
31
0
0
LINE
8
WIN
10
0.0000
20
40.8000
30
0
11
0.0000
21
34.8000
31
0
0
LINE
8
WIN
10
0.6000
20
40.8000
30
0
11
0.6000
21
34.8000
31
0
0
LINE
8
WIN
10
0.3000
20
40.8000
30
0
11
0.3000
21
34.8000
31
0
0
LINE
8
WIN
10
0.0000
20
12.0000
30
0
11
0.0000
21
6.0000
31
0
0
LINE
8
WIN
10
0.6000
20
12.0000
30
0
11
0.6000
21
6.0000
31
0
0
LINE
8
WIN
10
0.3000
20
12.0000
30
0
11
0.3000
21
6.0000
31
0
0
LINE
8
WIN
10
47.4000
20
45.6000
30
0
11
47.4000
21
39.6000
31
0
0
LINE
8
WIN
10
48.0000
20
45.6000
30
0
11
48.0000
21
39.6000
31
0
0
LINE
8
WIN
10
47.7000
20
45.6000
30
0
11
47.7000
21
39.6000
31
0
0
LINE
8
WIN
10
47.4000
20
30.0000
30
0
11
47.4000
21
24.0000
31
0
0
LINE
8
WIN
10
48.0000
20
30.0000
30
0
11
48.0000
21
24.0000
31
0
0
LINE
8
WIN
10
47.7000
20
30.0000
30
0
11
47.7000
21
24.0000
31
0
0
LINE
8
WIN
10
47.4000
20
12.0000
30
0
11
47.4000
21
4.8000
31
0
0
LINE
8
WIN
10
48.0000
20
12.0000
30
0
11
48.0000
21
4.8000
31
0
0
LINE
8
WIN
10
47.7000
20
12.0000
30
0
11
47.7000
21
4.8000
31
0
0
LINE
8
GRID
10
0.6000
20
60.0000
30
0
11
0.6000
21
-9.6000
31
0
0
LINE
8
GRID
10
20.4000
20
60.0000
30
0
11
20.4000
21
-9.6000
31
0
0
LINE
8
GRID
10
29.4000
20
60.0000
30
0
11
29.4000
21
-9.6000
31
0
0
LINE
8
GRID
10
47.4000
20
60.0000
30
0
11
47.4000
21
-9.6000
31
0
0
LINE
8
GRID
10
-9.6000
20
49.8000
30
0
11
57.6000
21
49.8000
31
0
0
LINE
8
GRID
10
-9.6000
20
33.6000
30
0
11
57.6000
21
33.6000
31
0
0
LINE
8
GRID
10
-9.6000
20
16.8000
30
0
11
57.6000
21
16.8000
31
0
0
LINE
8
GRID
10
-9.6000
20
0.6000
30
0
11
57.6000
21
0.6000
31
0
0
TEXT
8
ROOM
10
7.0800
20
37.8000
30
0
40
0.6600
1
GARAGE
0
TEXT
8
ROOM
10
8.0400
20
36.6000
30
0
40
0.4800
1
511 SF
0
TEXT
8
ROOM
10
21.8400
20
42.0000
30
0
40
0.6600
1
FOYER
0
TEXT
8
ROOM
10
22.8000
20
40.8000
30
0
40
0.4800
1
136 SF
0
TEXT
8
ROOM
10
35.0400
20
42.0000
30
0
40
0.6600
1
STUDY
0
TEXT
8
ROOM
10
36.0000
20
40.8000
30
0
40
0.4800
1
282 SF
0
TEXT
8
ROOM
10
30.8400
20
25.8000
30
0
40
0.6600
1
KITCHEN
0
TEXT
8
ROOM
10
31.8000
20
24.6000
30
0
40
0.4800
1
412 SF
0
TEXT
8
ROOM
10
7.0800
20
20.4000
30
0
40
0.6600
1
MUDROOM
0
TEXT
8
ROOM
10
8.0400
20
19.2000
30
0
40
0.4800
1
131 SF
0
TEXT
8
ROOM
10
1.4400
20
12.2400
30
0
40
0.6600
1
POWDER
0
TEXT
8
ROOM
10
2.4000
20
11.0400
30
0
40
0.4800
1
65 SF
0
TEXT
8
ROOM
10
24.2400
20
10.2000
30
0
40
0.6600
1
GREAT ROOM
0
TEXT
8
ROOM
10
25.2000
20
9.0000
30
0
40
0.4800
1
612 SF
0
CIRCLE
8
ELEC
10
3.6000
20
49.0800
30
0
40
0.6000
0
LINE
8
ELEC
10
3.3840
20
49.6200
30
0
11
3.3840
21
48.5400
31
0
0
LINE
8
ELEC
10
3.8160
20
49.6200
30
0
11
3.8160
21
48.5400
31
0
0
TEXT
8
ELEC
10
2.4000
20
49.9200
30
0
40
0.7440
1
GFI
0
TEXT
8
ELEC
10
2.6400
20
49.0200
30
0
40
0.7440
1
+48"
0
CIRCLE
8
ELEC
10
14.4000
20
49.0800
30
0
40
0.6000
0
LINE
8
ELEC
10
14.1840
20
49.6200
30
0
11
14.1840
21
48.5400
31
0
0
LINE
8
ELEC
10
14.6160
20
49.6200
30
0
11
14.6160
21
48.5400
31
0
0
TEXT
8
ELEC
10
13.4400
20
49.9200
30
0
40
0.7440
1
+48"
0
CIRCLE
8
ELEC
10
32.4000
20
49.0800
30
0
40
0.6000
0
LINE
8
ELEC
10
32.1840
20
49.6200
30
0
11
32.1840
21
48.5400
31
0
0
LINE
8
ELEC
10
32.6160
20
49.6200
30
0
11
32.6160
21
48.5400
31
0
0
TEXT
8
ELEC
10
31.4400
20
49.9200
30
0
40
0.7440
1
+48"
0
CIRCLE
8
ELEC
10
42.0000
20
49.0800
30
0
40
0.6000
0
LINE
8
ELEC
10
41.7840
20
49.6200
30
0
11
41.7840
21
48.5400
31
0
0
LINE
8
ELEC
10
42.2160
20
49.6200
30
0
11
42.2160
21
48.5400
31
0
0
TEXT
8
ELEC
10
41.0400
20
49.9200
30
0
40
0.7440
1
+48"
0
CIRCLE
8
ELEC
10
3.6000
20
1.9200
30
0
40
0.6000
0
LINE
8
ELEC
10
3.3840
20
2.4600
30
0
11
3.3840
21
1.3800
31
0
0
LINE
8
ELEC
10
3.8160
20
2.4600
30
0
11
3.8160
21
1.3800
31
0
0
TEXT
8
ELEC
10
2.4000
20
2.7600
30
0
40
0.7440
1
GFI
0
TEXT
8
ELEC
10
2.6400
20
1.8600
30
0
40
0.7440
1
+48"
0
CIRCLE
8
ELEC
10
18.6000
20
1.9200
30
0
40
0.6000
0
LINE
8
ELEC
10
18.3840
20
2.4600
30
0
11
18.3840
21
1.3800
31
0
0
LINE
8
ELEC
10
18.8160
20
2.4600
30
0
11
18.8160
21
1.3800
31
0
0
TEXT
8
ELEC
10
17.6400
20
2.7600
30
0
40
0.7440
1
+48"
0
CIRCLE
8
ELEC
10
38.4000
20
1.9200
30
0
40
0.6000
0
LINE
8
ELEC
10
38.1840
20
2.4600
30
0
11
38.1840
21
1.3800
31
0
0
LINE
8
ELEC
10
38.6160
20
2.4600
30
0
11
38.6160
21
1.3800
31
0
0
TEXT
8
ELEC
10
37.2000
20
2.7600
30
0
40
0.7440
1
WP/GFI
0
TEXT
8
ELEC
10
37.4400
20
1.8600
30
0
40
0.7440
1
+48"
0
CIRCLE
8
ELEC
10
1.3200
20
38.4000
30
0
40
0.6000
0
LINE
8
ELEC
10
1.1040
20
38.9400
30
0
11
1.1040
21
37.8600
31
0
0
LINE
8
ELEC
10
1.5360
20
38.9400
30
0
11
1.5360
21
37.8600
31
0
0
TEXT
8
ELEC
10
0.3600
20
39.2400
30
0
40
0.7440
1
+48"
0
CIRCLE
8
ELEC
10
1.3200
20
19.8000
30
0
40
0.6000
0
LINE
8
ELEC
10
1.1040
20
20.3400
30
0
11
1.1040
21
19.2600
31
0
0
LINE
8
ELEC
10
1.5360
20
20.3400
30
0
11
1.5360
21
19.2600
31
0
0
TEXT
8
ELEC
10
0.1200
20
20.6400
30
0
40
0.7440
1
GFI
0
TEXT
8
ELEC
10
0.3600
20
19.7400
30
0
40
0.7440
1
+48"
0
CIRCLE
8
ELEC
10
1.3200
20
6.0000
30
0
40
0.6000
0
LINE
8
ELEC
10
1.1040
20
6.5400
30
0
11
1.1040
21
5.4600
31
0
0
LINE
8
ELEC
10
1.5360
20
6.5400
30
0
11
1.5360
21
5.4600
31
0
0
TEXT
8
ELEC
10
0.3600
20
6.8400
30
0
40
0.7440
1
+48"
0
CIRCLE
8
ELEC
10
46.0800
20
42.0000
30
0
40
0.6000
0
LINE
8
ELEC
10
45.8640
20
42.5400
30
0
11
45.8640
21
41.4600
31
0
0
LINE
8
ELEC
10
46.2960
20
42.5400
30
0
11
46.2960
21
41.4600
31
0
0
TEXT
8
ELEC
10
45.1200
20
42.8400
30
0
40
0.7440
1
+48"
0
CIRCLE
8
ELEC
10
46.0800
20
25.8000
30
0
40
0.6000
0
LINE
8
ELEC
10
45.8640
20
26.3400
30
0
11
45.8640
21
25.2600
31
0
0
LINE
8
ELEC
10
46.2960
20
26.3400
30
0
11
46.2960
21
25.2600
31
0
0
TEXT
8
ELEC
10
44.8800
20
26.6400
30
0
40
0.7440
1
GFI
0
TEXT
8
ELEC
10
45.1200
20
25.7400
30
0
40
0.7440
1
+44"
0
CIRCLE
8
ELEC
10
46.0800
20
9.6000
30
0
40
0.6000
0
LINE
8
ELEC
10
45.8640
20
10.1400
30
0
11
45.8640
21
9.0600
31
0
0
LINE
8
ELEC
10
46.2960
20
10.1400
30
0
11
46.2960
21
9.0600
31
0
0
TEXT
8
ELEC
10
45.1200
20
10.4400
30
0
40
0.7440
1
+48"
0
CIRCLE
8
ELEC
10
22.2000
20
34.8000
30
0
40
0.6000
0
LINE
8
ELEC
10
21.9840
20
35.3400
30
0
11
21.9840
21
34.2600
31
0
0
LINE
8
ELEC
10
22.4160
20
35.3400
30
0
11
22.4160
21
34.2600
31
0
0
TEXT
8
ELEC
10
21.2400
20
35.6400
30
0
40
0.7440
1
+48"
0
CIRCLE
8
ELEC
10
31.2000
20
34.3200
30
0
40
0.6000
0
LINE
8
ELEC
10
30.9840
20
34.8600
30
0
11
30.9840
21
33.7800
31
0
0
LINE
8
ELEC
10
31.4160
20
34.8600
30
0
11
31.4160
21
33.7800
31
0
0
TEXT
8
ELEC
10
30.0000
20
35.1600
30
0
40
0.7440
1
GFI
0
TEXT
8
ELEC
10
30.2400
20
34.2600
30
0
40
0.7440
1
+44"
0
CIRCLE
8
ELEC
10
38.4000
20
34.3200
30
0
40
0.6000
0
LINE
8
ELEC
10
38.1840
20
34.8600
30
0
11
38.1840
21
33.7800
31
0
0
LINE
8
ELEC
10
38.6160
20
34.8600
30
0
11
38.6160
21
33.7800
31
0
0
TEXT
8
ELEC
10
37.2000
20
35.1600
30
0
40
0.7440
1
GFI
0
TEXT
8
ELEC
10
37.4400
20
34.2600
30
0
40
0.7440
1
+44"
0
CIRCLE
8
ELEC
10
21.6000
20
15.0000
30
0
40
0.6000
0
LINE
8
ELEC
10
21.3840
20
15.5400
30
0
11
21.3840
21
14.4600
31
0
0
LINE
8
ELEC
10
21.8160
20
15.5400
30
0
11
21.8160
21
14.4600
31
0
0
TEXT
8
ELEC
10
20.6400
20
15.8400
30
0
40
0.7440
1
+48"
0
CIRCLE
8
ELEC
10
34.8000
20
22.8000
30
0
40
0.6000
0
LINE
8
ELEC
10
34.5840
20
23.3400
30
0
11
34.5840
21
22.2600
31
0
0
LINE
8
ELEC
10
35.0160
20
23.3400
30
0
11
35.0160
21
22.2600
31
0
0
TEXT
8
ELEC
10
33.6000
20
23.6400
30
0
40
0.7440
1
GFI
0
TEXT
8
ELEC
10
33.8400
20
22.7400
30
0
40
0.7440
1
+44"
0
CIRCLE
8
ELEC
10
10.8000
20
48.7200
30
0
40
0.6000
0
LINE
8
ELEC
10
10.5840
20
49.2600
30
0
11
10.5840
21
48.1800
31
0
0
LINE
8
ELEC
10
11.0160
20
49.2600
30
0
11
11.0160
21
48.1800
31
0
0
TEXT
8
ELEC
10
9.6000
20
49.5600
30
0
40
0.7440
1
WP
0
TEXT
8
ELEC
10
9.8400
20
48.6600
30
0
40
0.7440
1
+79"
0
CIRCLE
8
ELEC
10
18.6000
20
25.8000
30
0
40
0.6000
0
LINE
8
ELEC
10
18.3840
20
26.3400
30
0
11
18.3840
21
25.2600
31
0
0
LINE
8
ELEC
10
18.8160
20
26.3400
30
0
11
18.8160
21
25.2600
31
0
0
TEXT
8
ELEC
10
17.4000
20
26.6400
30
0
40
0.7440
1
GFI
0
TEXT
8
ELEC
10
17.6400
20
25.7400
30
0
40
0.7440
1
+48"
0
TEXT
8
ELEC
10
2.4000
20
28.2000
30
0
40
0.8640
1
TYPICAL GARAGE DOOR SENSORS
0
CIRCLE
8
ELEC
10
3.3600
20
24.9600
30
0
40
0.4200
0
CIRCLE
8
ELEC
10
18.9600
20
24.9600
30
0
40
0.4200
0
TEXT
8
ELEC
10
2.8800
20
24.0000
30
0
40
0.8640
1
GD
0
TEXT
8
ELEC
10
18.4800
20
24.0000
30
0
40
0.8640
1
GD
0
POLYLINE
8
ELEC
66
1
70
1
10
0
20
0
30
0
0
VERTEX
8
ELEC
10
17.2800
20
48.7200
30
0
0
VERTEX
8
ELEC
10
19.6800
20
48.7200
30
0
0
VERTEX
8
ELEC
10
19.6800
20
47.6400
30
0
0
VERTEX
8
ELEC
10
17.2800
20
47.6400
30
0
0
SEQEND
8
ELEC
0
TEXT
8
ELEC
10
13.2000
20
46.3200
30
0
40
0.8640
1
200 AMP ELECTRICAL PANEL
0
CIRCLE
8
ELEC
10
25.2000
20
37.2000
30
0
40
0.5400
0
TEXT
8
ELEC
10
26.0400
20
36.9600
30
0
40
0.8640
1
SD
0
CIRCLE
8
ELEC
10
34.2000
20
13.8000
30
0
40
0.5400
0
TEXT
8
ELEC
10
35.0400
20
13.5600
30
0
40
0.8640
1
SD
0
CIRCLE
8
ELEC
10
11.4000
20
19.8000
30
0
40
0.5400
0
TEXT
8
ELEC
10
12.2400
20
19.5600
30
0
40
0.8640
1
CM
0
CIRCLE
8
ELEC
10
13.2000
20
36.0000
30
0
40
0.5400
0
TEXT
8
ELEC
10
14.0400
20
35.7600
30
0
40
0.8640
1
HEAT DETECTOR
0
CIRCLE
8
ELEC
10
10.4400
20
37.8000
30
0
40
0.8400
0
LINE
8
ELEC
10
9.6000
20
37.8000
30
0
11
11.2800
21
37.8000
31
0
0
LINE
8
ELEC
10
10.4400
20
38.6400
30
0
11
10.4400
21
36.9600
31
0
0
CIRCLE
8
ELEC
10
25.2000
20
42.0000
30
0
40
0.8400
0
LINE
8
ELEC
10
24.3600
20
42.0000
30
0
11
26.0400
21
42.0000
31
0
0
LINE
8
ELEC
10
25.2000
20
42.8400
30
0
11
25.2000
21
41.1600
31
0
0
CIRCLE
8
ELEC
10
38.4000
20
42.0000
30
0
40
0.8400
0
LINE
8
ELEC
10
37.5600
20
42.0000
30
0
11
39.2400
21
42.0000
31
0
0
LINE
8
ELEC
10
38.4000
20
42.8400
30
0
11
38.4000
21
41.1600
31
0
0
CIRCLE
8
ELEC
10
34.2000
20
27.0000
30
0
40
0.8400
0
LINE
8
ELEC
10
33.3600
20
27.0000
30
0
11
35.0400
21
27.0000
31
0
0
LINE
8
ELEC
10
34.2000
20
27.8400
30
0
11
34.2000
21
26.1600
31
0
0
CIRCLE
8
ELEC
10
10.4400
20
20.4000
30
0
40
0.8400
0
LINE
8
ELEC
10
9.6000
20
20.4000
30
0
11
11.2800
21
20.4000
31
0
0
LINE
8
ELEC
10
10.4400
20
21.2400
30
0
11
10.4400
21
19.5600
31
0
0
CIRCLE
8
ELEC
10
4.8000
20
12.0000
30
0
40
0.8400
0
LINE
8
ELEC
10
3.9600
20
12.0000
30
0
11
5.6400
21
12.0000
31
0
0
LINE
8
ELEC
10
4.8000
20
12.8400
30
0
11
4.8000
21
11.1600
31
0
0
CIRCLE
8
ELEC
10
27.6000
20
9.0000
30
0
40
0.8400
0
LINE
8
ELEC
10
26.7600
20
9.0000
30
0
11
28.4400
21
9.0000
31
0
0
LINE
8
ELEC
10
27.6000
20
9.8400
30
0
11
27.6000
21
8.1600
31
0
0
CIRCLE
8
ELEC
10
39.6000
20
13.2000
30
0
40
0.8400
0
LINE
8
ELEC
10
38.7600
20
13.2000
30
0
11
40.4400
21
13.2000
31
0
0
LINE
8
ELEC
10
39.6000
20
14.0400
30
0
11
39.6000
21
12.3600
31
0
0
TEXT
8
ELEC
10
23.5200
20
45.3600
30
0
40
0.9000
1
S
0
TEXT
8
ELEC
10
30.2400
20
45.3600
30
0
40
0.9000
1
S
0
TEXT
8
ELEC
10
19.9200
20
21.3600
30
0
40
0.9000
1
S
0
TEXT
8
ELEC
10
21.8400
20
16.0800
30
0
40
0.9000
1
S
0
TEXT
8
ELEC
10
29.2800
20
32.1600
30
0
40
0.9000
1
S3
0
TEXT
8
ELEC
10
41.5200
20
15.3600
30
0
40
0.9000
1
S3
0
TEXT
8
ELEC
10
1.2000
20
14.1600
30
0
40
0.8640
1
VENT EXHAUST TO EXTERIOR
0
TEXT
8
ELEC
10
31.4400
20
18.9600
30
0
40
0.8640
1
TO LIGHT ABOVE
0
TEXT
8
ELEC
10
39.6000
20
38.6400
30
0
40
0.8640
1
TO LIGHT ABOVE
0
TEXT
8
NOTE
10
0.0000
20
-22.8000
30
0
40
0.8400
1
REMOTE & PARTNERS · DEMONSTRATION RESIDENCE
0
TEXT
8
NOTE
10
0.0000
20
-24.6000
30
0
40
0.6600
1
E-101 ELECTRICAL PLAN · 1/4" = 1'-0" · UNITS: FEET
0
ENDSEC
0
EOF
