0
SECTION
2
HEADER
9
$INSUNITS
70
2
0
ENDSEC
0
SECTION
2
TABLES
0
TABLE
2
LAYER
70
11
0
LAYER
2
WALL
70
0
62
7
6
CONTINUOUS
0
LAYER
2
DOOR
70
0
62
3
6
CONTINUOUS
0
LAYER
2
WIN
70
0
62
5
6
CONTINUOUS
0
LAYER
2
ROOM
70
0
62
2
6
CONTINUOUS
0
LAYER
2
GRID
70
0
62
8
6
CONTINUOUS
0
LAYER
2
NOTE
70
0
62
4
6
CONTINUOUS
0
LAYER
2
FND
70
0
62
1
6
CONTINUOUS
0
LAYER
2
FRAM
70
0
62
5
6
CONTINUOUS
0
LAYER
2
FURN
70
0
62
8
6
CONTINUOUS
0
LAYER
2
ELEC
70
0
62
6
6
CONTINUOUS
0
LAYER
2
SHEET
70
0
62
7
6
CONTINUOUS
0
ENDTAB
0
ENDSEC
0
SECTION
2
ENTITIES
0
POLYLINE
8
WALL
66
1
70
1
10
0
20
0
30
0
0
VERTEX
8
WALL
10
0.0000
20
50.4000
30
0
0
VERTEX
8
WALL
10
3.6000
20
50.4000
30
0
0
VERTEX
8
WALL
10
3.6000
20
49.8000
30
0
0
VERTEX
8
WALL
10
0.0000
20
49.8000
30
0
0
SEQEND
8
WALL
0
POLYLINE
8
WALL
66
1
70
1
10
0
20
0
30
0
0
VERTEX
8
WALL
10
0.0000
20
49.8000
30
0
0
VERTEX
8
WALL
10
0.6000
20
49.8000
30
0
0
VERTEX
8
WALL
10
0.6000
20
40.8000
30
0
0
VERTEX
8
WALL
10
0.0000
20
40.8000
30
0
0
SEQEND
8
WALL
0
POLYLINE
8
WALL
66
1
70
1
10
0
20
0
30
0
0
VERTEX
8
WALL
10
0.0000
20
34.8000
30
0
0
VERTEX
8
WALL
10
0.6000
20
34.8000
30
0
0
VERTEX
8
WALL
10
0.6000
20
12.0000
30
0
0
VERTEX
8
WALL
10
0.0000
20
12.0000
30
0
0
SEQEND
8
WALL
0
POLYLINE
8
WALL
66
1
70
1
10
0
20
0
30
0
0
VERTEX
8
WALL
10
18.6000
20
50.4000
30
0
0
VERTEX
8
WALL
10
22.8000
20
50.4000
30
0
0
VERTEX
8
WALL
10
22.8000
20
49.8000
30
0
0
VERTEX
8
WALL
10
18.6000
20
49.8000
30
0
0
SEQEND
8
WALL
0
POLYLINE
8
WALL
66
1
70
1
10
0
20
0
30
0
0
VERTEX
8
WALL
10
20.4000
20
49.8000
30
0
0
VERTEX
8
WALL
10
20.7600
20
49.8000
30
0
0
VERTEX
8
WALL
10
20.7600
20
24.0000
30
0
0
VERTEX
8
WALL
10
20.4000
20
24.0000
30
0
0
SEQEND
8
WALL
0
POLYLINE
8
WALL
66
1
70
1
10
0
20
0
30
0
0
VERTEX
8
WALL
10
27.0000
20
50.4000
30
0
0
VERTEX
8
WALL
10
32.4000
20
50.4000
30
0
0
VERTEX
8
WALL
10
32.4000
20
49.8000
30
0
0
VERTEX
8
WALL
10
27.0000
20
49.8000
30
0
0
SEQEND
8
WALL
0
POLYLINE
8
WALL
66
1
70
1
10
0
20
0
30
0
0
VERTEX
8
WALL
10
0.6000
20
24.0000
30
0
0
VERTEX
8
WALL
10
20.4000
20
24.0000
30
0
0
VERTEX
8
WALL
10
20.4000
20
23.6400
30
0
0
VERTEX
8
WALL
10
0.6000
20
23.6400
30
0
0
SEQEND
8
WALL
0
POLYLINE
8
WALL
66
1
70
1
10
0
20
0
30
0
0
VERTEX
8
WALL
10
29.4000
20
49.8000
30
0
0
VERTEX
8
WALL
10
29.7600
20
49.8000
30
0
0
VERTEX
8
WALL
10
29.7600
20
33.6000
30
0
0
VERTEX
8
WALL
10
29.4000
20
33.6000
30
0
0
SEQEND
8
WALL
0
POLYLINE
8
WALL
66
1
70
1
10
0
20
0
30
0
0
VERTEX
8
WALL
10
0.6000
20
16.8000
30
0
0
VERTEX
8
WALL
10
20.4000
20
16.8000
30
0
0
VERTEX
8
WALL
10
20.4000
20
16.4400
30
0
0
VERTEX
8
WALL
10
0.6000
20
16.4400
30
0
0
SEQEND
8
WALL
0
POLYLINE
8
WALL
66
1
70
1
10
0
20
0
30
0
0
VERTEX
8
WALL
10
38.4000
20
50.4000
30
0
0
VERTEX
8
WALL
10
40.8000
20
50.4000
30
0
0
VERTEX
8
WALL
10
40.8000
20
49.8000
30
0
0
VERTEX
8
WALL
10
38.4000
20
49.8000
30
0
0
SEQEND
8
WALL
0
POLYLINE
8
WALL
66
1
70
1
10
0
20
0
30
0
0
VERTEX
8
WALL
10
0.6000
20
8.4000
30
0
0
VERTEX
8
WALL
10
9.2400
20
8.4000
30
0
0
VERTEX
8
WALL
10
9.2400
20
8.0400
30
0
0
VERTEX
8
WALL
10
0.6000
20
8.0400
30
0
0
SEQEND
8
WALL
0
POLYLINE
8
WALL
66
1
70
1
10
0
20
0
30
0
0
VERTEX
8
WALL
10
9.0000
20
16.2000
30
0
0
VERTEX
8
WALL
10
9.3600
20
16.2000
30
0
0
VERTEX
8
WALL
10
9.3600
20
8.0400
30
0
0
VERTEX
8
WALL
10
9.0000
20
8.0400
30
0
0
SEQEND
8
WALL
0
POLYLINE
8
WALL
66
1
70
1
10
0
20
0
30
0
0
VERTEX
8
WALL
10
0.0000
20
6.0000
30
0
0
VERTEX
8
WALL
10
0.6000
20
6.0000
30
0
0
VERTEX
8
WALL
10
0.6000
20
0.6000
30
0
0
VERTEX
8
WALL
10
0.0000
20
0.6000
30
0
0
SEQEND
8
WALL
0
POLYLINE
8
WALL
66
1
70
1
10
0
20
0
30
0
0
VERTEX
8
WALL
10
29.7600
20
33.6000
30
0
0
VERTEX
8
WALL
10
47.4000
20
33.6000
30
0
0
VERTEX
8
WALL
10
47.4000
20
33.2400
30
0
0
VERTEX
8
WALL
10
29.7600
20
33.2400
30
0
0
SEQEND
8
WALL
0
POLYLINE
8
WALL
66
1
70
1
10
0
20
0
30
0
0
VERTEX
8
WALL
10
46.8000
20
50.4000
30
0
0
VERTEX
8
WALL
10
48.0000
20
50.4000
30
0
0
VERTEX
8
WALL
10
48.0000
20
49.8000
30
0
0
VERTEX
8
WALL
10
46.8000
20
49.8000
30
0
0
SEQEND
8
WALL
0
POLYLINE
8
WALL
66
1
70
1
10
0
20
0
30
0
0
VERTEX
8
WALL
10
47.4000
20
49.8000
30
0
0
VERTEX
8
WALL
10
48.0000
20
49.8000
30
0
0
VERTEX
8
WALL
10
48.0000
20
45.6000
30
0
0
VERTEX
8
WALL
10
47.4000
20
45.6000
30
0
0
SEQEND
8
WALL
0
POLYLINE
8
WALL
66
1
70
1
10
0
20
0
30
0
0
VERTEX
8
WALL
10
0.0000
20
0.6000
30
0
0
VERTEX
8
WALL
10
3.6000
20
0.6000
30
0
0
VERTEX
8
WALL
10
3.6000
20
0.0000
30
0
0
VERTEX
8
WALL
10
0.0000
20
0.0000
30
0
0
SEQEND
8
WALL
0
POLYLINE
8
WALL
66
1
70
1
10
0
20
0
30
0
0
VERTEX
8
WALL
10
8.4000
20
0.6000
30
0
0
VERTEX
8
WALL
10
26.4000
20
0.6000
30
0
0
VERTEX
8
WALL
10
26.4000
20
0.0000
30
0
0
VERTEX
8
WALL
10
8.4000
20
0.0000
30
0
0
SEQEND
8
WALL
0
POLYLINE
8
WALL
66
1
70
1
10
0
20
0
30
0
0
VERTEX
8
WALL
10
47.4000
20
39.6000
30
0
0
VERTEX
8
WALL
10
48.0000
20
39.6000
30
0
0
VERTEX
8
WALL
10
48.0000
20
30.0000
30
0
0
VERTEX
8
WALL
10
47.4000
20
30.0000
30
0
0
SEQEND
8
WALL
0
POLYLINE
8
WALL
66
1
70
1
10
0
20
0
30
0
0
VERTEX
8
WALL
10
47.4000
20
24.0000
30
0
0
VERTEX
8
WALL
10
48.0000
20
24.0000
30
0
0
VERTEX
8
WALL
10
48.0000
20
12.0000
30
0
0
VERTEX
8
WALL
10
47.4000
20
12.0000
30
0
0
SEQEND
8
WALL
0
POLYLINE
8
WALL
66
1
70
1
10
0
20
0
30
0
0
VERTEX
8
WALL
10
40.8000
20
0.6000
30
0
0
VERTEX
8
WALL
10
48.0000
20
0.6000
30
0
0
VERTEX
8
WALL
10
48.0000
20
0.0000
30
0
0
VERTEX
8
WALL
10
40.8000
20
0.0000
30
0
0
SEQEND
8
WALL
0
POLYLINE
8
WALL
66
1
70
1
10
0
20
0
30
0
0
VERTEX
8
WALL
10
47.4000
20
4.8000
30
0
0
VERTEX
8
WALL
10
48.0000
20
4.8000
30
0
0
VERTEX
8
WALL
10
48.0000
20
0.6000
30
0
0
VERTEX
8
WALL
10
47.4000
20
0.6000
30
0
0
SEQEND
8
WALL
0
LINE
8
DOOR
10
22.8000
20
50.4000
30
0
11
22.8000
21
54.6000
31
0
0
ARC
8
DOOR
10
22.8000
20
50.4000
30
0
40
4.2000
50
0.00
51
90.00
0
LINE
8
DOOR
10
20.4000
20
21.6000
30
0
11
24.0000
21
21.6000
31
0
0
ARC
8
DOOR
10
20.4000
20
21.6000
30
0
40
3.6000
50
270.00
51
360.00
0
LINE
8
DOOR
10
10.8000
20
16.8000
30
0
11
10.8000
21
20.4000
31
0
0
ARC
8
DOOR
10
10.8000
20
16.8000
30
0
40
3.6000
50
0.00
51
90.00
0
LINE
8
DOOR
10
9.0000
20
13.8000
30
0
11
12.3600
21
13.8000
31
0
0
ARC
8
DOOR
10
9.0000
20
13.8000
30
0
40
3.3600
50
270.00
51
360.00
0
LINE
8
DOOR
10
29.4000
20
44.4000
30
0
11
33.0000
21
44.4000
31
0
0
ARC
8
DOOR
10
29.4000
20
44.4000
30
0
40
3.6000
50
270.00
51
360.00
0
LINE
8
WIN
10
32.4000
20
50.4000
30
0
11
38.4000
21
50.4000
31
0
0
LINE
8
WIN
10
32.4000
20
49.8000
30
0
11
38.4000
21
49.8000
31
0
0
LINE
8
WIN
10
32.4000
20
50.1000
30
0
11
38.4000
21
50.1000
31
0
0
LINE
8
WIN
10
40.8000
20
50.4000
30
0
11
46.8000
21
50.4000
31
0
0
LINE
8
WIN
10
40.8000
20
49.8000
30
0
11
46.8000
21
49.8000
31
0
0
LINE
8
WIN
10
40.8000
20
50.1000
30
0
11
46.8000
21
50.1000
31
0
0
LINE
8
WIN
10
3.6000
20
0.6000
30
0
11
8.4000
21
0.6000
31
0
0
LINE
8
WIN
10
3.6000
20
0.0000
30
0
11
8.4000
21
0.0000
31
0
0
LINE
8
WIN
10
3.6000
20
0.3000
30
0
11
8.4000
21
0.3000
31
0
0
LINE
8
WIN
10
26.4000
20
0.6000
30
0
11
40.8000
21
0.6000
31
0
0
LINE
8
WIN
10
26.4000
20
0.0000
30
0
11
40.8000
21
0.0000
31
0
0
LINE
8
WIN
10
26.4000
20
0.3000
30
0
11
40.8000
21
0.3000
31
0
0
LINE
8
WIN
10
0.0000
20
40.8000
30
0
11
0.0000
21
34.8000
31
0
0
LINE
8
WIN
10
0.6000
20
40.8000
30
0
11
0.6000
21
34.8000
31
0
0
LINE
8
WIN
10
0.3000
20
40.8000
30
0
11
0.3000
21
34.8000
31
0
0
LINE
8
WIN
10
0.0000
20
12.0000
30
0
11
0.0000
21
6.0000
31
0
0
LINE
8
WIN
10
0.6000
20
12.0000
30
0
11
0.6000
21
6.0000
31
0
0
LINE
8
WIN
10
0.3000
20
12.0000
30
0
11
0.3000
21
6.0000
31
0
0
LINE
8
WIN
10
47.4000
20
45.6000
30
0
11
47.4000
21
39.6000
31
0
0
LINE
8
WIN
10
48.0000
20
45.6000
30
0
11
48.0000
21
39.6000
31
0
0
LINE
8
WIN
10
47.7000
20
45.6000
30
0
11
47.7000
21
39.6000
31
0
0
LINE
8
WIN
10
47.4000
20
30.0000
30
0
11
47.4000
21
24.0000
31
0
0
LINE
8
WIN
10
48.0000
20
30.0000
30
0
11
48.0000
21
24.0000
31
0
0
LINE
8
WIN
10
47.7000
20
30.0000
30
0
11
47.7000
21
24.0000
31
0
0
LINE
8
WIN
10
47.4000
20
12.0000
30
0
11
47.4000
21
4.8000
31
0
0
LINE
8
WIN
10
48.0000
20
12.0000
30
0
11
48.0000
21
4.8000
31
0
0
LINE
8
WIN
10
47.7000
20
12.0000
30
0
11
47.7000
21
4.8000
31
0
0
LINE
8
GRID
10
0.6000
20
60.0000
30
0
11
0.6000
21
-9.6000
31
0
0
LINE
8
GRID
10
20.4000
20
60.0000
30
0
11
20.4000
21
-9.6000
31
0
0
LINE
8
GRID
10
29.4000
20
60.0000
30
0
11
29.4000
21
-9.6000
31
0
0
LINE
8
GRID
10
47.4000
20
60.0000
30
0
11
47.4000
21
-9.6000
31
0
0
LINE
8
GRID
10
-9.6000
20
49.8000
30
0
11
57.6000
21
49.8000
31
0
0
LINE
8
GRID
10
-9.6000
20
33.6000
30
0
11
57.6000
21
33.6000
31
0
0
LINE
8
GRID
10
-9.6000
20
16.8000
30
0
11
57.6000
21
16.8000
31
0
0
LINE
8
GRID
10
-9.6000
20
0.6000
30
0
11
57.6000
21
0.6000
31
0
0
LINE
8
FRAM
10
2.4000
20
49.2000
30
0
11
2.4000
21
24.6000
31
0
0
LINE
8
FRAM
10
3.7320
20
49.2000
30
0
11
3.7320
21
24.6000
31
0
0
LINE
8
FRAM
10
5.0640
20
49.2000
30
0
11
5.0640
21
24.6000
31
0
0
LINE
8
FRAM
10
6.3960
20
49.2000
30
0
11
6.3960
21
24.6000
31
0
0
LINE
8
FRAM
10
7.7280
20
49.2000
30
0
11
7.7280
21
24.6000
31
0
0
LINE
8
FRAM
10
9.0720
20
49.2000
30
0
11
9.0720
21
24.6000
31
0
0
LINE
8
FRAM
10
10.4040
20
49.2000
30
0
11
10.4040
21
24.6000
31
0
0
LINE
8
FRAM
10
11.7360
20
49.2000
30
0
11
11.7360
21
24.6000
31
0
0
LINE
8
FRAM
10
13.0680
20
49.2000
30
0
11
13.0680
21
24.6000
31
0
0
LINE
8
FRAM
10
14.4000
20
49.2000
30
0
11
14.4000
21
24.6000
31
0
0
LINE
8
FRAM
10
15.7320
20
49.2000
30
0
11
15.7320
21
24.6000
31
0
0
LINE
8
FRAM
10
17.0640
20
49.2000
30
0
11
17.0640
21
24.6000
31
0
0
LINE
8
FRAM
10
18.3960
20
49.2000
30
0
11
18.3960
21
24.6000
31
0
0
LINE
8
FRAM
10
19.7280
20
49.2000
30
0
11
19.7280
21
24.6000
31
0
0
LINE
8
FRAM
10
21.0720
20
49.2000
30
0
11
21.0720
21
24.6000
31
0
0
LINE
8
FRAM
10
22.4040
20
49.2000
30
0
11
22.4040
21
24.6000
31
0
0
LINE
8
FRAM
10
23.7360
20
49.2000
30
0
11
23.7360
21
24.6000
31
0
0
LINE
8
FRAM
10
25.0680
20
49.2000
30
0
11
25.0680
21
24.6000
31
0
0
LINE
8
FRAM
10
26.4000
20
49.2000
30
0
11
26.4000
21
24.6000
31
0
0
LINE
8
FRAM
10
27.7320
20
49.2000
30
0
11
27.7320
21
24.6000
31
0
0
LINE
8
FRAM
10
29.0640
20
49.2000
30
0
11
29.0640
21
24.6000
31
0
0
LINE
8
FRAM
10
30.3960
20
49.2000
30
0
11
30.3960
21
24.6000
31
0
0
LINE
8
FRAM
10
31.7280
20
49.2000
30
0
11
31.7280
21
24.6000
31
0
0
LINE
8
FRAM
10
33.0720
20
49.2000
30
0
11
33.0720
21
24.6000
31
0
0
LINE
8
FRAM
10
34.4040
20
49.2000
30
0
11
34.4040
21
24.6000
31
0
0
LINE
8
FRAM
10
35.7360
20
49.2000
30
0
11
35.7360
21
24.6000
31
0
0
LINE
8
FRAM
10
37.0680
20
49.2000
30
0
11
37.0680
21
24.6000
31
0
0
LINE
8
FRAM
10
38.4000
20
49.2000
30
0
11
38.4000
21
24.6000
31
0
0
LINE
8
FRAM
10
39.7320
20
49.2000
30
0
11
39.7320
21
24.6000
31
0
0
LINE
8
FRAM
10
41.0640
20
49.2000
30
0
11
41.0640
21
24.6000
31
0
0
LINE
8
FRAM
10
42.3960
20
49.2000
30
0
11
42.3960
21
24.6000
31
0
0
LINE
8
FRAM
10
43.7280
20
49.2000
30
0
11
43.7280
21
24.6000
31
0
0
LINE
8
FRAM
10
45.0720
20
49.2000
30
0
11
45.0720
21
24.6000
31
0
0
LINE
8
FRAM
10
46.4040
20
49.2000
30
0
11
46.4040
21
24.6000
31
0
0
LINE
8
FRAM
10
2.4000
20
16.2000
30
0
11
2.4000
21
1.2000
31
0
0
LINE
8
FRAM
10
3.7320
20
16.2000
30
0
11
3.7320
21
1.2000
31
0
0
LINE
8
FRAM
10
5.0640
20
16.2000
30
0
11
5.0640
21
1.2000
31
0
0
LINE
8
FRAM
10
6.3960
20
16.2000
30
0
11
6.3960
21
1.2000
31
0
0
LINE
8
FRAM
10
7.7280
20
16.2000
30
0
11
7.7280
21
1.2000
31
0
0
LINE
8
FRAM
10
9.0720
20
16.2000
30
0
11
9.0720
21
1.2000
31
0
0
LINE
8
FRAM
10
10.4040
20
16.2000
30
0
11
10.4040
21
1.2000
31
0
0
LINE
8
FRAM
10
11.7360
20
16.2000
30
0
11
11.7360
21
1.2000
31
0
0
LINE
8
FRAM
10
13.0680
20
16.2000
30
0
11
13.0680
21
1.2000
31
0
0
LINE
8
FRAM
10
14.4000
20
16.2000
30
0
11
14.4000
21
1.2000
31
0
0
LINE
8
FRAM
10
15.7320
20
16.2000
30
0
11
15.7320
21
1.2000
31
0
0
LINE
8
FRAM
10
17.0640
20
16.2000
30
0
11
17.0640
21
1.2000
31
0
0
LINE
8
FRAM
10
18.3960
20
16.2000
30
0
11
18.3960
21
1.2000
31
0
0
LINE
8
FRAM
10
19.7280
20
16.2000
30
0
11
19.7280
21
1.2000
31
0
0
LINE
8
FRAM
10
21.0720
20
16.2000
30
0
11
21.0720
21
1.2000
31
0
0
LINE
8
FRAM
10
22.4040
20
16.2000
30
0
11
22.4040
21
1.2000
31
0
0
LINE
8
FRAM
10
23.7360
20
16.2000
30
0
11
23.7360
21
1.2000
31
0
0
LINE
8
FRAM
10
25.0680
20
16.2000
30
0
11
25.0680
21
1.2000
31
0
0
LINE
8
FRAM
10
26.4000
20
16.2000
30
0
11
26.4000
21
1.2000
31
0
0
LINE
8
FRAM
10
27.7320
20
16.2000
30
0
11
27.7320
21
1.2000
31
0
0
LINE
8
FRAM
10
29.0640
20
16.2000
30
0
11
29.0640
21
1.2000
31
0
0
LINE
8
FRAM
10
30.3960
20
16.2000
30
0
11
30.3960
21
1.2000
31
0
0
LINE
8
FRAM
10
31.7280
20
16.2000
30
0
11
31.7280
21
1.2000
31
0
0
LINE
8
FRAM
10
33.0720
20
16.2000
30
0
11
33.0720
21
1.2000
31
0
0
LINE
8
FRAM
10
34.4040
20
16.2000
30
0
11
34.4040
21
1.2000
31
0
0
LINE
8
FRAM
10
35.7360
20
16.2000
30
0
11
35.7360
21
1.2000
31
0
0
LINE
8
FRAM
10
37.0680
20
16.2000
30
0
11
37.0680
21
1.2000
31
0
0
LINE
8
FRAM
10
38.4000
20
16.2000
30
0
11
38.4000
21
1.2000
31
0
0
LINE
8
FRAM
10
39.7320
20
16.2000
30
0
11
39.7320
21
1.2000
31
0
0
LINE
8
FRAM
10
41.0640
20
16.2000
30
0
11
41.0640
21
1.2000
31
0
0
LINE
8
FRAM
10
42.3960
20
16.2000
30
0
11
42.3960
21
1.2000
31
0
0
LINE
8
FRAM
10
43.7280
20
16.2000
30
0
11
43.7280
21
1.2000
31
0
0
LINE
8
FRAM
10
45.0720
20
16.2000
30
0
11
45.0720
21
1.2000
31
0
0
LINE
8
FRAM
10
46.4040
20
16.2000
30
0
11
46.4040
21
1.2000
31
0
0
POLYLINE
8
FRAM
66
1
70
1
10
0
20
0
30
0
0
VERTEX
8
FRAM
10
0.6000
20
24.4800
30
0
0
VERTEX
8
FRAM
10
47.4000
20
24.4800
30
0
0
VERTEX
8
FRAM
10
47.4000
20
23.7600
30
0
0
VERTEX
8
FRAM
10
0.6000
20
23.7600
30
0
0
SEQEND
8
FRAM
0
POLYLINE
8
FRAM
66
1
70
1
10
0
20
0
30
0
0
VERTEX
8
FRAM
10
0.6000
20
33.9600
30
0
0
VERTEX
8
FRAM
10
47.4000
20
33.9600
30
0
0
VERTEX
8
FRAM
10
47.4000
20
33.3600
30
0
0
VERTEX
8
FRAM
10
0.6000
20
33.3600
30
0
0
SEQEND
8
FRAM
0
POLYLINE
8
FRAM
66
1
70
1
10
0
20
0
30
0
0
VERTEX
8
FRAM
10
3.3600
20
50.6400
30
0
0
VERTEX
8
FRAM
10
18.9600
20
50.6400
30
0
0
VERTEX
8
FRAM
10
18.9600
20
50.0400
30
0
0
VERTEX
8
FRAM
10
3.3600
20
50.0400
30
0
0
SEQEND
8
FRAM
0
POLYLINE
8
FRAM
66
1
70
1
10
0
20
0
30
0
0
VERTEX
8
FRAM
10
26.1600
20
0.9600
30
0
0
VERTEX
8
FRAM
10
41.0400
20
0.9600
30
0
0
VERTEX
8
FRAM
10
41.0400
20
0.3600
30
0
0
VERTEX
8
FRAM
10
26.1600
20
0.3600
30
0
0
SEQEND
8
FRAM
0
LINE
8
FRAM
10
23.4000
20
46.8000
30
0
11
23.4000
21
39.6000
31
0
0
LINE
8
FRAM
10
22.8000
20
45.8400
30
0
11
23.4000
21
46.8000
31
0
0
LINE
8
FRAM
10
24.0000
20
45.8400
30
0
11
23.4000
21
46.8000
31
0
0
LINE
8
FRAM
10
22.8000
20
40.5600
30
0
11
23.4000
21
39.6000
31
0
0
LINE
8
FRAM
10
24.0000
20
40.5600
30
0
11
23.4000
21
39.6000
31
0
0
LINE
8
FRAM
10
23.4000
20
13.2000
30
0
11
23.4000
21
6.0000
31
0
0
LINE
8
FRAM
10
22.8000
20
12.2400
30
0
11
23.4000
21
13.2000
31
0
0
LINE
8
FRAM
10
24.0000
20
12.2400
30
0
11
23.4000
21
13.2000
31
0
0
LINE
8
FRAM
10
22.8000
20
6.9600
30
0
11
23.4000
21
6.0000
31
0
0
LINE
8
FRAM
10
24.0000
20
6.9600
30
0
11
23.4000
21
6.0000
31
0
0
TEXT
8
FRAM
10
24.2400
20
43.6800
30
0
40
1.0200
1
2x10 @ 16" O.C.
0
TEXT
8
FRAM
10
24.2400
20
10.0800
30
0
40
1.0200
1
2x10 @ 16" O.C.
0
TEXT
8
FRAM
10
3.6000
20
24.9600
30
0
40
0.9000
1
FLUSH BEAM 3-1/2x11-7/8 LVL
0
POLYLINE
8
FRAM
66
1
70
1
10
0
20
0
30
0
0
VERTEX
8
FRAM
10
19.7400
20
24.7800
30
0
0
VERTEX
8
FRAM
10
21.0600
20
24.7800
30
0
0
VERTEX
8
FRAM
10
21.0600
20
23.4600
30
0
0
VERTEX
8
FRAM
10
19.7400
20
23.4600
30
0
0
SEQEND
8
FRAM
0
POLYLINE
8
FRAM
66
1
70
1
10
0
20
0
30
0
0
VERTEX
8
FRAM
10
28.7400
20
24.7800
30
0
0
VERTEX
8
FRAM
10
30.0600
20
24.7800
30
0
0
VERTEX
8
FRAM
10
30.0600
20
23.4600
30
0
0
VERTEX
8
FRAM
10
28.7400
20
23.4600
30
0
0
SEQEND
8
FRAM
0
POLYLINE
8
FRAM
66
1
70
1
10
0
20
0
30
0
0
VERTEX
8
FRAM
10
19.7400
20
34.3800
30
0
0
VERTEX
8
FRAM
10
21.0600
20
34.3800
30
0
0
VERTEX
8
FRAM
10
21.0600
20
33.0600
30
0
0
VERTEX
8
FRAM
10
19.7400
20
33.0600
30
0
0
SEQEND
8
FRAM
0
POLYLINE
8
FRAM
66
1
70
1
10
0
20
0
30
0
0
VERTEX
8
FRAM
10
28.7400
20
34.3800
30
0
0
VERTEX
8
FRAM
10
30.0600
20
34.3800
30
0
0
VERTEX
8
FRAM
10
30.0600
20
33.0600
30
0
0
VERTEX
8
FRAM
10
28.7400
20
33.0600
30
0
0
SEQEND
8
FRAM
0
TEXT
8
NOTE
10
0.0000
20
-22.8000
30
0
40
0.8400
1
REMOTE & PARTNERS · DEMONSTRATION RESIDENCE
0
TEXT
8
NOTE
10
0.0000
20
-24.6000
30
0
40
0.6600
1
S-201 FLOOR FRAMING PLAN · 1/4" = 1'-0" · UNITS: FEET
0
ENDSEC
0
EOF
