0
SECTION
2
HEADER
9
$INSUNITS
70
2
0
ENDSEC
0
SECTION
2
TABLES
0
TABLE
2
LAYER
70
11
0
LAYER
2
WALL
70
0
62
7
6
CONTINUOUS
0
LAYER
2
DOOR
70
0
62
3
6
CONTINUOUS
0
LAYER
2
WIN
70
0
62
5
6
CONTINUOUS
0
LAYER
2
ROOM
70
0
62
2
6
CONTINUOUS
0
LAYER
2
GRID
70
0
62
8
6
CONTINUOUS
0
LAYER
2
NOTE
70
0
62
4
6
CONTINUOUS
0
LAYER
2
FND
70
0
62
1
6
CONTINUOUS
0
LAYER
2
FRAM
70
0
62
5
6
CONTINUOUS
0
LAYER
2
FURN
70
0
62
8
6
CONTINUOUS
0
LAYER
2
ELEC
70
0
62
6
6
CONTINUOUS
0
LAYER
2
SHEET
70
0
62
7
6
CONTINUOUS
0
ENDTAB
0
ENDSEC
0
SECTION
2
ENTITIES
0
POLYLINE
8
WALL
66
1
70
1
10
0
20
0
30
0
0
VERTEX
8
WALL
10
0.0000
20
50.4000
30
0
0
VERTEX
8
WALL
10
3.6000
20
50.4000
30
0
0
VERTEX
8
WALL
10
3.6000
20
49.8000
30
0
0
VERTEX
8
WALL
10
0.0000
20
49.8000
30
0
0
SEQEND
8
WALL
0
POLYLINE
8
WALL
66
1
70
1
10
0
20
0
30
0
0
VERTEX
8
WALL
10
0.0000
20
49.8000
30
0
0
VERTEX
8
WALL
10
0.6000
20
49.8000
30
0
0
VERTEX
8
WALL
10
0.6000
20
40.8000
30
0
0
VERTEX
8
WALL
10
0.0000
20
40.8000
30
0
0
SEQEND
8
WALL
0
POLYLINE
8
WALL
66
1
70
1
10
0
20
0
30
0
0
VERTEX
8
WALL
10
0.0000
20
34.8000
30
0
0
VERTEX
8
WALL
10
0.6000
20
34.8000
30
0
0
VERTEX
8
WALL
10
0.6000
20
12.0000
30
0
0
VERTEX
8
WALL
10
0.0000
20
12.0000
30
0
0
SEQEND
8
WALL
0
POLYLINE
8
WALL
66
1
70
1
10
0
20
0
30
0
0
VERTEX
8
WALL
10
18.6000
20
50.4000
30
0
0
VERTEX
8
WALL
10
22.8000
20
50.4000
30
0
0
VERTEX
8
WALL
10
22.8000
20
49.8000
30
0
0
VERTEX
8
WALL
10
18.6000
20
49.8000
30
0
0
SEQEND
8
WALL
0
POLYLINE
8
WALL
66
1
70
1
10
0
20
0
30
0
0
VERTEX
8
WALL
10
20.4000
20
49.8000
30
0
0
VERTEX
8
WALL
10
20.7600
20
49.8000
30
0
0
VERTEX
8
WALL
10
20.7600
20
24.0000
30
0
0
VERTEX
8
WALL
10
20.4000
20
24.0000
30
0
0
SEQEND
8
WALL
0
POLYLINE
8
WALL
66
1
70
1
10
0
20
0
30
0
0
VERTEX
8
WALL
10
27.0000
20
50.4000
30
0
0
VERTEX
8
WALL
10
32.4000
20
50.4000
30
0
0
VERTEX
8
WALL
10
32.4000
20
49.8000
30
0
0
VERTEX
8
WALL
10
27.0000
20
49.8000
30
0
0
SEQEND
8
WALL
0
POLYLINE
8
WALL
66
1
70
1
10
0
20
0
30
0
0
VERTEX
8
WALL
10
0.6000
20
24.0000
30
0
0
VERTEX
8
WALL
10
20.4000
20
24.0000
30
0
0
VERTEX
8
WALL
10
20.4000
20
23.6400
30
0
0
VERTEX
8
WALL
10
0.6000
20
23.6400
30
0
0
SEQEND
8
WALL
0
POLYLINE
8
WALL
66
1
70
1
10
0
20
0
30
0
0
VERTEX
8
WALL
10
29.4000
20
49.8000
30
0
0
VERTEX
8
WALL
10
29.7600
20
49.8000
30
0
0
VERTEX
8
WALL
10
29.7600
20
33.6000
30
0
0
VERTEX
8
WALL
10
29.4000
20
33.6000
30
0
0
SEQEND
8
WALL
0
POLYLINE
8
WALL
66
1
70
1
10
0
20
0
30
0
0
VERTEX
8
WALL
10
0.6000
20
16.8000
30
0
0
VERTEX
8
WALL
10
20.4000
20
16.8000
30
0
0
VERTEX
8
WALL
10
20.4000
20
16.4400
30
0
0
VERTEX
8
WALL
10
0.6000
20
16.4400
30
0
0
SEQEND
8
WALL
0
POLYLINE
8
WALL
66
1
70
1
10
0
20
0
30
0
0
VERTEX
8
WALL
10
38.4000
20
50.4000
30
0
0
VERTEX
8
WALL
10
40.8000
20
50.4000
30
0
0
VERTEX
8
WALL
10
40.8000
20
49.8000
30
0
0
VERTEX
8
WALL
10
38.4000
20
49.8000
30
0
0
SEQEND
8
WALL
0
POLYLINE
8
WALL
66
1
70
1
10
0
20
0
30
0
0
VERTEX
8
WALL
10
0.6000
20
8.4000
30
0
0
VERTEX
8
WALL
10
9.2400
20
8.4000
30
0
0
VERTEX
8
WALL
10
9.2400
20
8.0400
30
0
0
VERTEX
8
WALL
10
0.6000
20
8.0400
30
0
0
SEQEND
8
WALL
0
POLYLINE
8
WALL
66
1
70
1
10
0
20
0
30
0
0
VERTEX
8
WALL
10
9.0000
20
16.2000
30
0
0
VERTEX
8
WALL
10
9.3600
20
16.2000
30
0
0
VERTEX
8
WALL
10
9.3600
20
8.0400
30
0
0
VERTEX
8
WALL
10
9.0000
20
8.0400
30
0
0
SEQEND
8
WALL
0
POLYLINE
8
WALL
66
1
70
1
10
0
20
0
30
0
0
VERTEX
8
WALL
10
0.0000
20
6.0000
30
0
0
VERTEX
8
WALL
10
0.6000
20
6.0000
30
0
0
VERTEX
8
WALL
10
0.6000
20
0.6000
30
0
0
VERTEX
8
WALL
10
0.0000
20
0.6000
30
0
0
SEQEND
8
WALL
0
POLYLINE
8
WALL
66
1
70
1
10
0
20
0
30
0
0
VERTEX
8
WALL
10
29.7600
20
33.6000
30
0
0
VERTEX
8
WALL
10
47.4000
20
33.6000
30
0
0
VERTEX
8
WALL
10
47.4000
20
33.2400
30
0
0
VERTEX
8
WALL
10
29.7600
20
33.2400
30
0
0
SEQEND
8
WALL
0
POLYLINE
8
WALL
66
1
70
1
10
0
20
0
30
0
0
VERTEX
8
WALL
10
46.8000
20
50.4000
30
0
0
VERTEX
8
WALL
10
48.0000
20
50.4000
30
0
0
VERTEX
8
WALL
10
48.0000
20
49.8000
30
0
0
VERTEX
8
WALL
10
46.8000
20
49.8000
30
0
0
SEQEND
8
WALL
0
POLYLINE
8
WALL
66
1
70
1
10
0
20
0
30
0
0
VERTEX
8
WALL
10
47.4000
20
49.8000
30
0
0
VERTEX
8
WALL
10
48.0000
20
49.8000
30
0
0
VERTEX
8
WALL
10
48.0000
20
45.6000
30
0
0
VERTEX
8
WALL
10
47.4000
20
45.6000
30
0
0
SEQEND
8
WALL
0
POLYLINE
8
WALL
66
1
70
1
10
0
20
0
30
0
0
VERTEX
8
WALL
10
0.0000
20
0.6000
30
0
0
VERTEX
8
WALL
10
3.6000
20
0.6000
30
0
0
VERTEX
8
WALL
10
3.6000
20
0.0000
30
0
0
VERTEX
8
WALL
10
0.0000
20
0.0000
30
0
0
SEQEND
8
WALL
0
POLYLINE
8
WALL
66
1
70
1
10
0
20
0
30
0
0
VERTEX
8
WALL
10
8.4000
20
0.6000
30
0
0
VERTEX
8
WALL
10
26.4000
20
0.6000
30
0
0
VERTEX
8
WALL
10
26.4000
20
0.0000
30
0
0
VERTEX
8
WALL
10
8.4000
20
0.0000
30
0
0
SEQEND
8
WALL
0
POLYLINE
8
WALL
66
1
70
1
10
0
20
0
30
0
0
VERTEX
8
WALL
10
47.4000
20
39.6000
30
0
0
VERTEX
8
WALL
10
48.0000
20
39.6000
30
0
0
VERTEX
8
WALL
10
48.0000
20
30.0000
30
0
0
VERTEX
8
WALL
10
47.4000
20
30.0000
30
0
0
SEQEND
8
WALL
0
POLYLINE
8
WALL
66
1
70
1
10
0
20
0
30
0
0
VERTEX
8
WALL
10
47.4000
20
24.0000
30
0
0
VERTEX
8
WALL
10
48.0000
20
24.0000
30
0
0
VERTEX
8
WALL
10
48.0000
20
12.0000
30
0
0
VERTEX
8
WALL
10
47.4000
20
12.0000
30
0
0
SEQEND
8
WALL
0
POLYLINE
8
WALL
66
1
70
1
10
0
20
0
30
0
0
VERTEX
8
WALL
10
40.8000
20
0.6000
30
0
0
VERTEX
8
WALL
10
48.0000
20
0.6000
30
0
0
VERTEX
8
WALL
10
48.0000
20
0.0000
30
0
0
VERTEX
8
WALL
10
40.8000
20
0.0000
30
0
0
SEQEND
8
WALL
0
POLYLINE
8
WALL
66
1
70
1
10
0
20
0
30
0
0
VERTEX
8
WALL
10
47.4000
20
4.8000
30
0
0
VERTEX
8
WALL
10
48.0000
20
4.8000
30
0
0
VERTEX
8
WALL
10
48.0000
20
0.6000
30
0
0
VERTEX
8
WALL
10
47.4000
20
0.6000
30
0
0
SEQEND
8
WALL
0
LINE
8
DOOR
10
22.8000
20
50.4000
30
0
11
22.8000
21
54.6000
31
0
0
ARC
8
DOOR
10
22.8000
20
50.4000
30
0
40
4.2000
50
0.00
51
90.00
0
LINE
8
DOOR
10
20.4000
20
21.6000
30
0
11
24.0000
21
21.6000
31
0
0
ARC
8
DOOR
10
20.4000
20
21.6000
30
0
40
3.6000
50
270.00
51
360.00
0
LINE
8
DOOR
10
10.8000
20
16.8000
30
0
11
10.8000
21
20.4000
31
0
0
ARC
8
DOOR
10
10.8000
20
16.8000
30
0
40
3.6000
50
0.00
51
90.00
0
LINE
8
DOOR
10
9.0000
20
13.8000
30
0
11
12.3600
21
13.8000
31
0
0
ARC
8
DOOR
10
9.0000
20
13.8000
30
0
40
3.3600
50
270.00
51
360.00
0
LINE
8
DOOR
10
29.4000
20
44.4000
30
0
11
33.0000
21
44.4000
31
0
0
ARC
8
DOOR
10
29.4000
20
44.4000
30
0
40
3.6000
50
270.00
51
360.00
0
LINE
8
WIN
10
32.4000
20
50.4000
30
0
11
38.4000
21
50.4000
31
0
0
LINE
8
WIN
10
32.4000
20
49.8000
30
0
11
38.4000
21
49.8000
31
0
0
LINE
8
WIN
10
32.4000
20
50.1000
30
0
11
38.4000
21
50.1000
31
0
0
LINE
8
WIN
10
40.8000
20
50.4000
30
0
11
46.8000
21
50.4000
31
0
0
LINE
8
WIN
10
40.8000
20
49.8000
30
0
11
46.8000
21
49.8000
31
0
0
LINE
8
WIN
10
40.8000
20
50.1000
30
0
11
46.8000
21
50.1000
31
0
0
LINE
8
WIN
10
3.6000
20
0.6000
30
0
11
8.4000
21
0.6000
31
0
0
LINE
8
WIN
10
3.6000
20
0.0000
30
0
11
8.4000
21
0.0000
31
0
0
LINE
8
WIN
10
3.6000
20
0.3000
30
0
11
8.4000
21
0.3000
31
0
0
LINE
8
WIN
10
26.4000
20
0.6000
30
0
11
40.8000
21
0.6000
31
0
0
LINE
8
WIN
10
26.4000
20
0.0000
30
0
11
40.8000
21
0.0000
31
0
0
LINE
8
WIN
10
26.4000
20
0.3000
30
0
11
40.8000
21
0.3000
31
0
0
LINE
8
WIN
10
0.0000
20
40.8000
30
0
11
0.0000
21
34.8000
31
0
0
LINE
8
WIN
10
0.6000
20
40.8000
30
0
11
0.6000
21
34.8000
31
0
0
LINE
8
WIN
10
0.3000
20
40.8000
30
0
11
0.3000
21
34.8000
31
0
0
LINE
8
WIN
10
0.0000
20
12.0000
30
0
11
0.0000
21
6.0000
31
0
0
LINE
8
WIN
10
0.6000
20
12.0000
30
0
11
0.6000
21
6.0000
31
0
0
LINE
8
WIN
10
0.3000
20
12.0000
30
0
11
0.3000
21
6.0000
31
0
0
LINE
8
WIN
10
47.4000
20
45.6000
30
0
11
47.4000
21
39.6000
31
0
0
LINE
8
WIN
10
48.0000
20
45.6000
30
0
11
48.0000
21
39.6000
31
0
0
LINE
8
WIN
10
47.7000
20
45.6000
30
0
11
47.7000
21
39.6000
31
0
0
LINE
8
WIN
10
47.4000
20
30.0000
30
0
11
47.4000
21
24.0000
31
0
0
LINE
8
WIN
10
48.0000
20
30.0000
30
0
11
48.0000
21
24.0000
31
0
0
LINE
8
WIN
10
47.7000
20
30.0000
30
0
11
47.7000
21
24.0000
31
0
0
LINE
8
WIN
10
47.4000
20
12.0000
30
0
11
47.4000
21
4.8000
31
0
0
LINE
8
WIN
10
48.0000
20
12.0000
30
0
11
48.0000
21
4.8000
31
0
0
LINE
8
WIN
10
47.7000
20
12.0000
30
0
11
47.7000
21
4.8000
31
0
0
LINE
8
GRID
10
0.6000
20
60.0000
30
0
11
0.6000
21
-9.6000
31
0
0
LINE
8
GRID
10
20.4000
20
60.0000
30
0
11
20.4000
21
-9.6000
31
0
0
LINE
8
GRID
10
29.4000
20
60.0000
30
0
11
29.4000
21
-9.6000
31
0
0
LINE
8
GRID
10
47.4000
20
60.0000
30
0
11
47.4000
21
-9.6000
31
0
0
LINE
8
GRID
10
-9.6000
20
49.8000
30
0
11
57.6000
21
49.8000
31
0
0
LINE
8
GRID
10
-9.6000
20
33.6000
30
0
11
57.6000
21
33.6000
31
0
0
LINE
8
GRID
10
-9.6000
20
16.8000
30
0
11
57.6000
21
16.8000
31
0
0
LINE
8
GRID
10
-9.6000
20
0.6000
30
0
11
57.6000
21
0.6000
31
0
0
POLYLINE
8
FND
66
1
70
1
10
0
20
0
30
0
0
VERTEX
8
FND
10
-1.2000
20
51.6000
30
0
0
VERTEX
8
FND
10
48.6000
20
51.6000
30
0
0
VERTEX
8
FND
10
48.6000
20
50.4000
30
0
0
VERTEX
8
FND
10
-1.2000
20
50.4000
30
0
0
SEQEND
8
FND
0
POLYLINE
8
FND
66
1
70
1
10
0
20
0
30
0
0
VERTEX
8
FND
10
-1.2000
20
0.6000
30
0
0
VERTEX
8
FND
10
48.6000
20
0.6000
30
0
0
VERTEX
8
FND
10
48.6000
20
-0.6000
30
0
0
VERTEX
8
FND
10
-1.2000
20
-0.6000
30
0
0
SEQEND
8
FND
0
POLYLINE
8
FND
66
1
70
1
10
0
20
0
30
0
0
VERTEX
8
FND
10
-1.2000
20
50.4000
30
0
0
VERTEX
8
FND
10
0.0000
20
50.4000
30
0
0
VERTEX
8
FND
10
0.0000
20
0.6000
30
0
0
VERTEX
8
FND
10
-1.2000
20
0.6000
30
0
0
SEQEND
8
FND
0
POLYLINE
8
FND
66
1
70
1
10
0
20
0
30
0
0
VERTEX
8
FND
10
47.4000
20
50.4000
30
0
0
VERTEX
8
FND
10
48.6000
20
50.4000
30
0
0
VERTEX
8
FND
10
48.6000
20
0.6000
30
0
0
VERTEX
8
FND
10
47.4000
20
0.6000
30
0
0
SEQEND
8
FND
0
POLYLINE
8
FND
66
1
70
1
10
0
20
0
30
0
0
VERTEX
8
FND
10
0.0000
20
50.4000
30
0
0
VERTEX
8
FND
10
47.4000
20
50.4000
30
0
0
VERTEX
8
FND
10
47.4000
20
49.8000
30
0
0
VERTEX
8
FND
10
0.0000
20
49.8000
30
0
0
SEQEND
8
FND
0
POLYLINE
8
FND
66
1
70
1
10
0
20
0
30
0
0
VERTEX
8
FND
10
0.0000
20
1.2000
30
0
0
VERTEX
8
FND
10
47.4000
20
1.2000
30
0
0
VERTEX
8
FND
10
47.4000
20
0.6000
30
0
0
VERTEX
8
FND
10
0.0000
20
0.6000
30
0
0
SEQEND
8
FND
0
POLYLINE
8
FND
66
1
70
1
10
0
20
0
30
0
0
VERTEX
8
FND
10
0.0000
20
50.4000
30
0
0
VERTEX
8
FND
10
0.6000
20
50.4000
30
0
0
VERTEX
8
FND
10
0.6000
20
0.6000
30
0
0
VERTEX
8
FND
10
0.0000
20
0.6000
30
0
0
SEQEND
8
FND
0
POLYLINE
8
FND
66
1
70
1
10
0
20
0
30
0
0
VERTEX
8
FND
10
46.8000
20
50.4000
30
0
0
VERTEX
8
FND
10
47.4000
20
50.4000
30
0
0
VERTEX
8
FND
10
47.4000
20
0.6000
30
0
0
VERTEX
8
FND
10
46.8000
20
0.6000
30
0
0
SEQEND
8
FND
0
POLYLINE
8
FND
66
1
70
1
10
0
20
0
30
0
0
VERTEX
8
FND
10
0.6000
20
49.8000
30
0
0
VERTEX
8
FND
10
20.4000
20
49.8000
30
0
0
VERTEX
8
FND
10
20.4000
20
24.0000
30
0
0
VERTEX
8
FND
10
0.6000
20
24.0000
30
0
0
SEQEND
8
FND
0
TEXT
8
FND
10
5.0400
20
36.6000
30
0
40
0.8400
1
4" CONC. SLAB ON GRADE
0
TEXT
8
FND
10
5.0400
20
35.5200
30
0
40
0.9000
1
SLOPE 2% MIN TO DOOR
0
TEXT
8
FND
10
3.6000
20
46.8000
30
0
40
0.8640
1
BLOCK OUT FOR GARAGE DOOR
0
LINE
8
FND
10
21.6000
20
49.2000
30
0
11
21.6000
21
1.2000
31
0
0
LINE
8
FND
10
23.6040
20
49.2000
30
0
11
23.6040
21
1.2000
31
0
0
LINE
8
FND
10
25.5960
20
49.2000
30
0
11
25.5960
21
1.2000
31
0
0
LINE
8
FND
10
27.6000
20
49.2000
30
0
11
27.6000
21
1.2000
31
0
0
LINE
8
FND
10
29.6040
20
49.2000
30
0
11
29.6040
21
1.2000
31
0
0
LINE
8
FND
10
31.5960
20
49.2000
30
0
11
31.5960
21
1.2000
31
0
0
LINE
8
FND
10
33.6000
20
49.2000
30
0
11
33.6000
21
1.2000
31
0
0
LINE
8
FND
10
35.6040
20
49.2000
30
0
11
35.6040
21
1.2000
31
0
0
LINE
8
FND
10
37.5960
20
49.2000
30
0
11
37.5960
21
1.2000
31
0
0
LINE
8
FND
10
39.6000
20
49.2000
30
0
11
39.6000
21
1.2000
31
0
0
LINE
8
FND
10
41.6040
20
49.2000
30
0
11
41.6040
21
1.2000
31
0
0
LINE
8
FND
10
43.5960
20
49.2000
30
0
11
43.5960
21
1.2000
31
0
0
LINE
8
FND
10
45.6000
20
49.2000
30
0
11
45.6000
21
1.2000
31
0
0
LINE
8
FND
10
1.4400
20
22.8000
30
0
11
1.4400
21
1.2000
31
0
0
LINE
8
FND
10
3.4440
20
22.8000
30
0
11
3.4440
21
1.2000
31
0
0
LINE
8
FND
10
5.4360
20
22.8000
30
0
11
5.4360
21
1.2000
31
0
0
LINE
8
FND
10
7.4400
20
22.8000
30
0
11
7.4400
21
1.2000
31
0
0
LINE
8
FND
10
9.4440
20
22.8000
30
0
11
9.4440
21
1.2000
31
0
0
LINE
8
FND
10
11.4360
20
22.8000
30
0
11
11.4360
21
1.2000
31
0
0
LINE
8
FND
10
13.4400
20
22.8000
30
0
11
13.4400
21
1.2000
31
0
0
LINE
8
FND
10
15.4440
20
22.8000
30
0
11
15.4440
21
1.2000
31
0
0
LINE
8
FND
10
17.4360
20
22.8000
30
0
11
17.4360
21
1.2000
31
0
0
LINE
8
FND
10
19.4400
20
22.8000
30
0
11
19.4400
21
1.2000
31
0
0
TEXT
8
FND
10
24.0000
20
18.9600
30
0
40
0.9000
1
9-1/2" TJI 110 AT 24" O.C.
0
LINE
8
FND
10
34.8000
20
24.0000
30
0
11
34.8000
21
14.4000
31
0
0
LINE
8
FND
10
34.2000
20
23.0400
30
0
11
34.8000
21
24.0000
31
0
0
LINE
8
FND
10
35.4000
20
23.0400
30
0
11
34.8000
21
24.0000
31
0
0
LINE
8
FND
10
34.2000
20
15.3600
30
0
11
34.8000
21
14.4000
31
0
0
LINE
8
FND
10
35.4000
20
15.3600
30
0
11
34.8000
21
14.4000
31
0
0
TEXT
8
FND
10
36.2400
20
14.6400
30
0
40
0.8640
1
JOIST LAYOUT
0
POLYLINE
8
FND
66
1
70
1
10
0
20
0
30
0
0
VERTEX
8
FND
10
0.6000
20
23.7600
30
0
0
VERTEX
8
FND
10
47.4000
20
23.7600
30
0
0
VERTEX
8
FND
10
47.4000
20
23.0400
30
0
0
VERTEX
8
FND
10
0.6000
20
23.0400
30
0
0
SEQEND
8
FND
0
TEXT
8
FND
10
2.4000
20
24.2400
30
0
40
0.9000
1
2x4 PONY WALL ON 14"x8" FOOTING, TYP.
0
POLYLINE
8
FND
66
1
70
1
10
0
20
0
30
0
0
VERTEX
8
FND
10
20.6400
20
49.8000
30
0
0
VERTEX
8
FND
10
21.3600
20
49.8000
30
0
0
VERTEX
8
FND
10
21.3600
20
23.4000
30
0
0
VERTEX
8
FND
10
20.6400
20
23.4000
30
0
0
SEQEND
8
FND
0
POLYLINE
8
FND
66
1
70
1
10
0
20
0
30
0
0
VERTEX
8
FND
10
19.5600
20
34.9200
30
0
0
VERTEX
8
FND
10
21.7200
20
34.9200
30
0
0
VERTEX
8
FND
10
21.7200
20
32.7600
30
0
0
VERTEX
8
FND
10
19.5600
20
32.7600
30
0
0
SEQEND
8
FND
0
POLYLINE
8
FND
66
1
70
1
10
0
20
0
30
0
0
VERTEX
8
FND
10
20.2200
20
34.2600
30
0
0
VERTEX
8
FND
10
21.0600
20
34.2600
30
0
0
VERTEX
8
FND
10
21.0600
20
33.4200
30
0
0
VERTEX
8
FND
10
20.2200
20
33.4200
30
0
0
SEQEND
8
FND
0
POLYLINE
8
FND
66
1
70
1
10
0
20
0
30
0
0
VERTEX
8
FND
10
28.3200
20
34.9200
30
0
0
VERTEX
8
FND
10
30.4800
20
34.9200
30
0
0
VERTEX
8
FND
10
30.4800
20
32.7600
30
0
0
VERTEX
8
FND
10
28.3200
20
32.7600
30
0
0
SEQEND
8
FND
0
POLYLINE
8
FND
66
1
70
1
10
0
20
0
30
0
0
VERTEX
8
FND
10
28.9800
20
34.2600
30
0
0
VERTEX
8
FND
10
29.8200
20
34.2600
30
0
0
VERTEX
8
FND
10
29.8200
20
33.4200
30
0
0
VERTEX
8
FND
10
28.9800
20
33.4200
30
0
0
SEQEND
8
FND
0
POLYLINE
8
FND
66
1
70
1
10
0
20
0
30
0
0
VERTEX
8
FND
10
19.5600
20
24.4800
30
0
0
VERTEX
8
FND
10
21.7200
20
24.4800
30
0
0
VERTEX
8
FND
10
21.7200
20
22.3200
30
0
0
VERTEX
8
FND
10
19.5600
20
22.3200
30
0
0
SEQEND
8
FND
0
POLYLINE
8
FND
66
1
70
1
10
0
20
0
30
0
0
VERTEX
8
FND
10
20.2200
20
23.8200
30
0
0
VERTEX
8
FND
10
21.0600
20
23.8200
30
0
0
VERTEX
8
FND
10
21.0600
20
22.9800
30
0
0
VERTEX
8
FND
10
20.2200
20
22.9800
30
0
0
SEQEND
8
FND
0
POLYLINE
8
FND
66
1
70
1
10
0
20
0
30
0
0
VERTEX
8
FND
10
28.3200
20
24.4800
30
0
0
VERTEX
8
FND
10
30.4800
20
24.4800
30
0
0
VERTEX
8
FND
10
30.4800
20
22.3200
30
0
0
VERTEX
8
FND
10
28.3200
20
22.3200
30
0
0
SEQEND
8
FND
0
POLYLINE
8
FND
66
1
70
1
10
0
20
0
30
0
0
VERTEX
8
FND
10
28.9800
20
23.8200
30
0
0
VERTEX
8
FND
10
29.8200
20
23.8200
30
0
0
VERTEX
8
FND
10
29.8200
20
22.9800
30
0
0
VERTEX
8
FND
10
28.9800
20
22.9800
30
0
0
SEQEND
8
FND
0
POLYLINE
8
FND
66
1
70
1
10
0
20
0
30
0
0
VERTEX
8
FND
10
36.1200
20
24.4800
30
0
0
VERTEX
8
FND
10
38.2800
20
24.4800
30
0
0
VERTEX
8
FND
10
38.2800
20
22.3200
30
0
0
VERTEX
8
FND
10
36.1200
20
22.3200
30
0
0
SEQEND
8
FND
0
POLYLINE
8
FND
66
1
70
1
10
0
20
0
30
0
0
VERTEX
8
FND
10
36.7800
20
23.8200
30
0
0
VERTEX
8
FND
10
37.6200
20
23.8200
30
0
0
VERTEX
8
FND
10
37.6200
20
22.9800
30
0
0
VERTEX
8
FND
10
36.7800
20
22.9800
30
0
0
SEQEND
8
FND
0
TEXT
8
FND
10
30.2400
20
34.5600
30
0
40
0.8640
1
24"x24"x8" FTG. W/ (2) #4 E.W.
0
TEXT
8
FND
10
38.1600
20
24.0000
30
0
40
0.8640
1
36"x36"x8" FTG. W/ (3) #4 E.W.
0
POLYLINE
8
FND
66
1
70
1
10
0
20
0
30
0
0
VERTEX
8
FND
10
7.2000
20
0.8400
30
0
0
VERTEX
8
FND
10
9.8400
20
0.8400
30
0
0
VERTEX
8
FND
10
9.8400
20
0.2400
30
0
0
VERTEX
8
FND
10
7.2000
20
0.2400
30
0
0
SEQEND
8
FND
0
POLYLINE
8
FND
66
1
70
1
10
0
20
0
30
0
0
VERTEX
8
FND
10
22.8000
20
0.8400
30
0
0
VERTEX
8
FND
10
25.4400
20
0.8400
30
0
0
VERTEX
8
FND
10
25.4400
20
0.2400
30
0
0
VERTEX
8
FND
10
22.8000
20
0.2400
30
0
0
SEQEND
8
FND
0
POLYLINE
8
FND
66
1
70
1
10
0
20
0
30
0
0
VERTEX
8
FND
10
37.2000
20
0.8400
30
0
0
VERTEX
8
FND
10
39.8400
20
0.8400
30
0
0
VERTEX
8
FND
10
39.8400
20
0.2400
30
0
0
VERTEX
8
FND
10
37.2000
20
0.2400
30
0
0
SEQEND
8
FND
0
POLYLINE
8
FND
66
1
70
1
10
0
20
0
30
0
0
VERTEX
8
FND
10
7.2000
20
50.7600
30
0
0
VERTEX
8
FND
10
9.8400
20
50.7600
30
0
0
VERTEX
8
FND
10
9.8400
20
50.1600
30
0
0
VERTEX
8
FND
10
7.2000
20
50.1600
30
0
0
SEQEND
8
FND
0
POLYLINE
8
FND
66
1
70
1
10
0
20
0
30
0
0
VERTEX
8
FND
10
31.2000
20
50.7600
30
0
0
VERTEX
8
FND
10
33.8400
20
50.7600
30
0
0
VERTEX
8
FND
10
33.8400
20
50.1600
30
0
0
VERTEX
8
FND
10
31.2000
20
50.1600
30
0
0
SEQEND
8
FND
0
TEXT
8
FND
10
23.2800
20
-0.4800
30
0
40
0.8640
1
6x30 FND VENT, TYP.
0
POLYLINE
8
FND
66
1
70
1
10
0
20
0
30
0
0
VERTEX
8
FND
10
15.6000
20
3.0000
30
0
0
VERTEX
8
FND
10
19.6800
20
3.0000
30
0
0
VERTEX
8
FND
10
19.6800
20
0.8400
30
0
0
VERTEX
8
FND
10
15.6000
20
0.8400
30
0
0
SEQEND
8
FND
0
TEXT
8
FND
10
7.4400
20
1.6800
30
0
40
0.8640
1
BLOCK-OUT FOR 18"x24" CRAWL ACCESS
0
TEXT
8
FND
10
1.2000
20
48.7200
30
0
40
0.8640
1
TOP OF CONC. TO BE 4" BELOW TOP OF STEM, TYP.
0
TEXT
8
FND
10
27.6000
20
48.0000
30
0
40
0.9000
1
36"x8" CONT. FTG. W/ (2) #4 CONT.
0
TEXT
8
FND
10
27.6000
20
46.9200
30
0
40
0.8640
1
1/2" ANCHOR BOLT @ 6'-0" O.C. MAX
0
TEXT
8
FND
10
27.6000
20
45.8400
30
0
40
0.8640
1
12" FROM EACH CORNER, TYP.
0
TEXT
8
FND
10
1.2000
20
17.7600
30
0
40
0.8640
1
GARAGE FOUNDATION IS CONTINUOUS
0
TEXT
8
FND
10
1.2000
20
16.6800
30
0
40
0.8640
1
THROUGH DOOR OPENINGS, TYP.
0
TEXT
8
FND
10
34.3200
20
4.0800
30
0
40
0.8640
1
SLOPE FOR POSITIVE DRAIN
0
TEXT
8
FND
10
34.3200
20
3.0000
30
0
40
0.8640
1
AWAY FROM STRUCTURE, 5% MIN
0
LINE
8
FND
10
-1.2000
20
53.0400
30
0
11
20.4000
21
53.0400
31
0
0
LINE
8
FND
10
-1.2000
20
53.4000
30
0
11
-1.2000
21
52.6800
31
0
0
LINE
8
FND
10
20.4000
20
53.4000
30
0
11
20.4000
21
52.6800
31
0
0
TEXT
8
FND
10
7.9200
20
53.5200
30
0
40
0.9000
1
20'-5"
0
LINE
8
FND
10
20.4000
20
53.0400
30
0
11
47.4000
21
53.0400
31
0
0
LINE
8
FND
10
20.4000
20
53.4000
30
0
11
20.4000
21
52.6800
31
0
0
LINE
8
FND
10
47.4000
20
53.4000
30
0
11
47.4000
21
52.6800
31
0
0
TEXT
8
FND
10
32.2200
20
53.5200
30
0
40
0.9000
1
26'-11"
0
LINE
8
FND
10
-2.6400
20
51.6000
30
0
11
-2.6400
21
23.7600
31
0
0
LINE
8
FND
10
-2.6400
20
51.9600
30
0
11
-2.6400
21
51.2400
31
0
0
LINE
8
FND
10
-2.6400
20
24.1200
30
0
11
-2.6400
21
23.4000
31
0
0
TEXT
8
FND
10
-2.0400
20
37.6800
30
0
40
0.9000
1
26'-8"
0
LINE
8
FND
10
-2.6400
20
23.7600
30
0
11
-2.6400
21
0.6000
31
0
0
LINE
8
FND
10
-2.6400
20
24.1200
30
0
11
-2.6400
21
23.4000
31
0
0
LINE
8
FND
10
-2.6400
20
0.9600
30
0
11
-2.6400
21
0.2400
31
0
0
TEXT
8
FND
10
-2.0400
20
12.1800
30
0
40
0.9000
1
23'-2"
0
CIRCLE
8
FND
10
3.6000
20
23.2800
30
0
40
1.0800
0
TEXT
8
FND
10
3.6000
20
22.9440
30
0
40
0.7440
1
1
0
CIRCLE
8
FND
10
25.2000
20
0.9600
30
0
40
1.0800
0
TEXT
8
FND
10
25.2000
20
0.6240
30
0
40
0.7440
1
2
0
CIRCLE
8
FND
10
46.5600
20
31.2000
30
0
40
1.0800
0
TEXT
8
FND
10
46.5600
20
30.8640
30
0
40
0.7440
1
3
0
TEXT
8
NOTE
10
0.0000
20
-22.8000
30
0
40
0.8400
1
REMOTE & PARTNERS · DEMONSTRATION RESIDENCE
0
TEXT
8
NOTE
10
0.0000
20
-24.6000
30
0
40
0.6600
1
S-101 FOUNDATION PLAN · 1/4" = 1'-0" · UNITS: FEET
0
ENDSEC
0
EOF
